# Blender v2.80 (sub 75) OBJ File: 'sector.blend'
# www.blender.org
mtllib sector.mtl
o Cylinder
v 0.000000 -0.500000 -15.884530
v -0.086603 -0.400000 -15.950000
v 0.086603 -0.400000 -15.950000
v 0.000000 0.500000 -15.884530
v 0.086603 0.400000 -15.950000
v -0.086603 0.400000 -15.950000
v 13.756407 -0.500000 -7.942265
v 13.769805 -0.400000 -8.049999
v 13.856407 -0.400000 -7.900000
v 13.756407 0.500000 -7.942265
v 13.856407 0.400000 -7.900000
v 13.769805 0.400000 -8.049999
v 13.756406 -0.500000 7.942266
v 13.856406 -0.400000 7.900001
v 13.769804 -0.400000 8.050001
v 13.756406 0.500000 7.942266
v 13.769804 0.400000 8.050001
v 13.856406 0.400000 7.900001
v -0.000001 -0.500000 15.884530
v 0.086601 -0.400000 15.950000
v -0.086604 -0.400000 15.950000
v -0.000001 0.500000 15.884530
v -0.086604 0.400000 15.950000
v 0.086601 0.400000 15.950000
v -13.756407 -0.500000 7.942264
v -13.769805 -0.400000 8.049998
v -13.856407 -0.400000 7.899999
v -13.756407 0.500000 7.942264
v -13.856407 0.400000 7.899999
v -13.769805 0.400000 8.049998
v -13.756407 -0.500000 -7.942264
v -13.856407 -0.400000 -7.899999
v -13.769805 -0.400000 -8.049998
v -13.756407 0.500000 -7.942264
v -13.769805 0.400000 -8.049998
v -13.856407 0.400000 -7.899999
vt 0.165625 0.550000
vt 0.165625 0.950000
vt 0.001042 0.950000
vt 0.001042 0.550000
vt 0.665625 0.550000
vt 0.665625 0.950000
vt 0.501042 0.950000
vt 0.501042 0.550000
vt 0.498958 0.550000
vt 0.498958 0.950000
vt 0.334375 0.950000
vt 0.334375 0.550000
vt 0.332292 0.550000
vt 0.332292 0.950000
vt 0.167708 0.950000
vt 0.167708 0.550000
vt 0.832292 0.550000
vt 0.832292 0.950000
vt 0.667708 0.950000
vt 0.667708 0.550000
vt 0.000601 1.000000
vt 0.166065 1.000000
vt 0.833935 1.000000
vt 0.998958 0.550000
vt 0.998958 0.950000
vt 0.834375 0.950000
vt 0.834375 0.550000
vt 0.750000 0.488268
vt 0.748701 0.489250
vt 0.751299 0.489250
vt 0.250000 0.488268
vt 0.251299 0.489250
vt 0.248701 0.489250
vt 0.956346 0.369134
vt 0.956547 0.370750
vt 0.957846 0.368500
vt 0.456346 0.369134
vt 0.457846 0.368500
vt 0.456547 0.370750
vt 0.956346 0.130866
vt 0.957846 0.131500
vt 0.956547 0.129250
vt 0.456346 0.130866
vt 0.456547 0.129250
vt 0.457846 0.131500
vt 0.750000 0.011732
vt 0.751299 0.010750
vt 0.748701 0.010750
vt 0.250000 0.011732
vt 0.248701 0.010750
vt 0.251299 0.010750
vt 0.543654 0.130866
vt 0.543453 0.129250
vt 0.542154 0.131500
vt 0.043654 0.130866
vt 0.042154 0.131500
vt 0.043453 0.129250
vt 0.543654 0.369134
vt 0.542154 0.368500
vt 0.543453 0.370750
vt 0.043654 0.369134
vt 0.043453 0.370750
vt 0.042154 0.368500
vt 0.833935 0.500000
vt 0.999399 0.500000
vt 0.999399 1.000000
vt -0.000000 0.950000
vt -0.000000 0.550000
vt 0.667268 0.500000
vt 0.832732 0.500000
vt 0.832732 1.000000
vt 0.667268 1.000000
vt 0.500601 0.500000
vt 0.666065 0.500000
vt 0.666065 1.000000
vt 0.500601 1.000000
vt 0.333935 0.500000
vt 0.499399 0.500000
vt 0.499399 1.000000
vt 0.333935 1.000000
vt 0.167268 0.500000
vt 0.332732 0.500000
vt 0.332732 1.000000
vt 0.167268 1.000000
vt 0.000601 0.500000
vt 0.166065 0.500000
vn -0.5000 0.0000 -0.8660
vn 0.5000 0.0000 0.8660
vn -0.5000 0.0000 0.8660
vn -1.0000 0.0000 0.0000
vn 1.0000 0.0000 0.0000
vn 0.0000 1.0000 0.0000
vn 0.5000 -0.0000 -0.8660
vn 0.0000 -0.5477 -0.8366
vn 0.0000 0.5477 -0.8366
vn 0.7246 -0.5478 -0.4183
vn 0.7246 0.5478 -0.4183
vn 0.7246 -0.5477 0.4183
vn 0.7246 0.5477 0.4183
vn -0.0000 -0.5477 0.8366
vn 0.0000 0.5477 0.8366
vn -0.7246 -0.5477 0.4183
vn -0.7246 0.5477 0.4183
vn -0.7246 -0.5477 -0.4183
vn -0.7246 0.5477 -0.4183
vn 0.3536 -0.7071 -0.6124
vn 0.3536 0.7071 -0.6124
vn 0.0000 0.0000 -1.0000
vn 0.8660 0.0000 -0.5000
vn 0.7071 -0.7071 0.0000
vn 0.7071 0.7071 0.0000
vn 0.8660 0.0000 0.5000
vn 0.3536 -0.7071 0.6124
vn 0.3536 0.7071 0.6124
vn 0.0000 0.0000 1.0000
vn -0.3536 -0.7071 0.6124
vn -0.3536 0.7071 0.6124
vn -0.8660 0.0000 0.5000
vn -0.7071 -0.7071 0.0000
vn -0.7071 0.7071 0.0000
vn -0.8660 0.0000 -0.5000
vn -0.3536 -0.7071 -0.6124
vn -0.3536 0.7071 -0.6124
vn 0.0000 -1.0000 0.0000
usemtl None
s off
f 33/1/1 35/2/1 6/3/1 2/4/1
f 15/5/2 17/6/2 24/7/2 20/8/2
f 21/9/3 23/10/3 30/11/3 26/12/3
f 27/13/4 29/14/4 36/15/4 32/16/4
f 9/17/5 11/18/5 18/19/5 14/20/5
f 4/21/6 34/22/6 10/23/6
f 3/24/7 5/25/7 12/26/7 8/27/7
f 1/28/8 2/29/8 3/30/8
f 4/31/9 5/32/9 6/33/9
f 7/34/10 8/35/10 9/36/10
f 10/37/11 11/38/11 12/39/11
f 13/40/12 14/41/12 15/42/12
f 16/43/13 17/44/13 18/45/13
f 19/46/14 20/47/14 21/48/14
f 22/49/15 23/50/15 24/51/15
f 25/52/16 26/53/16 27/54/16
f 28/55/17 29/56/17 30/57/17
f 31/58/18 32/59/18 33/60/18
f 34/61/19 35/62/19 36/63/19
f 3/24/20 8/27/20 7/64/20 1/65/20
f 12/26/21 5/25/21 4/66/21 10/23/21
f 2/4/22 6/3/22 5/67/22 3/68/22
f 11/18/23 9/17/23 8/27/23 12/26/23
f 9/17/24 14/20/24 13/69/24 7/70/24
f 18/19/25 11/18/25 10/71/25 16/72/25
f 17/6/26 15/5/26 14/20/26 18/19/26
f 15/5/27 20/8/27 19/73/27 13/74/27
f 24/7/28 17/6/28 16/75/28 22/76/28
f 23/10/29 21/9/29 20/8/29 24/7/29
f 21/9/30 26/12/30 25/77/30 19/78/30
f 30/11/31 23/10/31 22/79/31 28/80/31
f 29/14/32 27/13/32 26/12/32 30/11/32
f 27/13/33 32/16/33 31/81/33 25/82/33
f 36/15/34 29/14/34 28/83/34 34/84/34
f 35/2/35 33/1/35 32/16/35 36/15/35
f 33/1/36 2/4/36 1/85/36 31/86/36
f 6/3/37 35/2/37 34/22/37 4/21/37
f 22/79/6 16/75/6 28/80/6
f 10/23/6 34/22/6 28/83/6 16/75/6
f 1/85/38 7/64/38 31/86/38
f 19/78/38 25/77/38 13/74/38
f 13/74/38 25/77/38 31/81/38 7/64/38
