# Blender v2.81 (sub 16) OBJ File: 'All.blend'
# www.blender.org
mtllib LivingModule_1.mtl
v 1.700000 4.000001 4.499991
v -1.700000 4.000001 4.499992
v -1.700000 4.000001 4.729853
v 1.700000 4.000001 4.729854
v 12.000000 4.000001 4.499994
v 13.000000 4.000000 3.499994
v 12.000000 5.000000 3.499994
v 8.334605 4.000001 5.547288
v 8.334606 5.000000 4.314556
v 13.000002 4.000000 -3.500006
v 12.000002 3.999999 -4.500006
v 12.000002 5.000000 -3.500006
v 8.334607 5.000000 -4.314569
v 3.666890 5.000000 3.499992
v -3.666889 5.000000 3.499991
v 5.001273 5.000000 4.314555
v 5.001274 5.000000 -4.314569
v 1.700000 3.700001 5.029854
v 2.000000 3.700001 4.729854
v 2.000000 3.700001 4.499992
v -1.700000 3.700001 5.029853
v -7.723073 -0.000001 -5.547304
v -7.723073 0.299999 -5.547304
v 7.723076 0.299999 -5.547302
v 7.723077 -0.000001 -5.547302
v 13.000002 3.599999 -3.500006
v 13.000000 3.600000 3.499994
v 5.001271 4.000001 5.547287
v 5.001272 3.700001 5.547287
v 8.334607 3.999999 -5.547302
v 8.334607 3.699999 -5.547302
v 7.723074 0.300001 5.547288
v 2.000000 0.000001 4.499992
v 7.723074 0.000001 5.547287
v 8.334605 3.700001 5.547288
v 8.334605 4.000001 5.843831
v 8.334605 3.700001 5.843831
v 12.000000 0.000001 4.499994
v 11.056408 0.300001 5.547289
v 11.056408 0.000001 5.547289
v 11.056410 0.299999 -5.547300
v 11.056410 -0.000001 -5.547300
v 11.056410 -0.000001 -5.843843
v 11.056410 0.299999 -5.843843
v -5.001269 3.699999 -5.547305
v 5.001273 3.699999 -5.547302
v 8.334606 5.350194 4.314556
v 8.334607 3.699999 -5.843845
v 8.334607 3.999999 -5.843845
v 5.001271 4.000001 5.843830
v 5.001273 5.350194 4.314555
v -5.001269 5.000000 -4.314571
v 5.001273 3.999999 -5.547302
v 5.001273 3.999999 -5.843845
v 5.001273 3.699999 -5.843845
v 8.334607 5.350194 -4.314569
v 7.723074 0.000001 5.843831
v 7.723074 0.300001 5.843832
v 5.001274 5.350194 -4.314569
v 12.000002 -0.000001 -4.500005
v 13.000000 0.000001 3.499995
v 13.000000 1.333334 3.499995
v 11.056408 0.300001 5.843832
v 11.056408 0.000001 5.843832
v 5.001272 3.700001 5.843830
v 7.723077 -0.000001 -5.843844
v 7.723076 0.299999 -5.843844
v 1.725412 0.000001 5.029854
v 2.000000 0.000001 4.729855
v 13.000002 1.333332 -3.500005
v 13.000002 -0.000001 -3.500005
v 12.731051 3.440356 3.321997
v 12.731052 3.440355 -3.322009
v -1.725412 0.000001 5.029853
v 12.731052 1.492977 -3.322008
v 12.731051 1.492979 3.321998
v -12.000000 4.000001 4.499990
v -12.000000 5.000000 3.499989
v -13.000000 4.000000 3.499990
v -8.334605 4.000001 5.547285
v -8.334606 5.000000 4.314552
v -12.999998 4.000000 -3.500010
v -11.999998 5.000000 -3.500011
v -11.999998 3.999999 -4.500010
v -8.334603 5.000000 -4.314571
v -2.000000 3.700001 4.729853
v -2.000000 3.700001 4.499992
v -5.001269 3.999999 -5.547305
v -12.999998 3.599999 -3.500010
v -13.000000 3.600000 3.499990
v -5.001271 4.000001 5.547285
v -5.001272 3.700001 5.547285
v -8.334603 3.999999 -5.547305
v -8.334603 3.699999 -5.547305
v -7.723074 0.300001 5.547286
v -7.723074 0.000001 5.547286
v -2.000000 0.000001 4.499991
v -8.334605 3.700001 5.547285
v -8.334605 3.700001 5.843827
v -8.334605 4.000001 5.843827
v -12.000000 0.000001 4.499990
v -11.056408 0.000001 5.547284
v -11.056408 0.300001 5.547284
v -11.056406 0.299999 -5.547305
v -11.056406 0.299999 -5.843848
v -11.056406 -0.000001 -5.843848
v -11.056406 -0.000001 -5.547305
v -8.334606 5.350194 4.314552
v -8.334603 3.999999 -5.843848
v -8.334603 3.699999 -5.843848
v -5.001273 5.000000 4.314553
v -5.001273 5.350194 4.314553
v -5.001271 4.000001 5.843827
v -5.001269 3.699999 -5.843848
v -5.001269 3.999999 -5.843848
v -8.334603 5.350194 -4.314571
v -7.723074 0.300001 5.843828
v -7.723074 0.000001 5.843828
v -5.001269 5.350194 -4.314571
v -11.999998 -0.000001 -4.500010
v -13.000000 1.333334 3.499990
v -13.000000 0.000001 3.499990
v -11.056408 0.300001 5.843827
v -11.056408 0.000001 5.843827
v -5.001272 3.700001 5.843827
v -7.723073 0.299999 -5.843847
v -7.723073 -0.000001 -5.843847
v -2.000000 0.000001 4.729853
v -12.999998 -0.000001 -3.500010
v -12.999998 1.333332 -3.500010
v -12.731049 3.440355 -3.322013
v -12.731050 3.440356 3.321992
v -12.731049 1.492977 -3.322012
v -12.731050 1.492979 3.321993
vt 0.026421 0.766144
vt 0.026421 0.663174
vt 0.033382 0.663174
vt 0.033382 0.766144
vt 0.504833 0.757589
vt 0.469019 0.787750
vt 0.463181 0.745942
vt 0.548691 0.641488
vt 0.497563 0.633960
vt 0.259001 0.785452
vt 0.222943 0.754094
vt 0.264909 0.741538
vt 0.228287 0.633960
vt 0.190480 0.267348
vt 0.232769 0.205292
vt 0.234932 0.431895
vt 0.192119 0.370962
vt 0.209486 0.162986
vt 0.475127 0.168861
vt 0.035828 0.775322
vt 0.046231 0.766144
vt 0.048038 0.778694
vt 0.034054 0.782298
vt 0.046930 0.785573
vt 0.046231 0.663174
vt 0.642335 0.549655
vt 0.633357 0.549655
vt 0.633358 0.087407
vt 0.642335 0.087407
vt 0.440917 0.596752
vt 0.440983 0.607945
vt 0.235853 0.609680
vt 0.235799 0.597877
vt 0.481795 0.608508
vt 0.161640 0.166282
vt 0.178953 0.261614
vt 0.152875 0.168744
vt 0.600662 0.617312
vt 0.601355 0.607957
vt 0.030047 0.119952
vt 0.070854 0.291968
vt 0.021310 0.122506
vt 0.772919 0.151393
vt 0.767756 0.160555
vt 0.760674 0.155637
vt 0.763643 0.146074
vt 0.193783 0.485967
vt 0.150019 0.495337
vt 0.150007 0.486021
vt 0.839457 0.651252
vt 0.841816 0.661851
vt 0.831250 0.663755
vt 0.830370 0.653986
vt 0.531608 0.468201
vt 0.531608 0.168861
vt 0.774733 0.213739
vt 0.765135 0.218928
vt 0.193937 0.610182
vt 0.075773 0.617311
vt 0.075212 0.608012
vt 0.771065 0.506377
vt 0.776354 0.515866
vt 0.766785 0.520433
vt 0.764389 0.511696
vt 0.178751 0.641978
vt 0.660037 0.216825
vt 0.664627 0.163168
vt 0.671328 0.158514
vt 0.670314 0.221877
vt 0.475127 0.468201
vt 0.666725 0.512274
vt 0.670140 0.501270
vt 0.677767 0.505333
vt 0.675914 0.513250
vt 0.774633 0.451463
vt 0.764136 0.446453
vt 0.705265 0.019569
vt 0.707067 0.009468
vt 0.717052 0.011250
vt 0.715653 0.021824
vt 0.659509 0.449939
vt 0.668785 0.444413
vt 0.483660 0.483454
vt 0.527731 0.484110
vt 0.527591 0.493490
vt 0.234884 0.486037
vt 0.236251 0.524389
vt 0.830221 0.021902
vt 0.831965 0.012457
vt 0.670155 0.151572
vt 0.719604 0.658050
vt 0.718830 0.647144
vt 0.709543 0.658968
vt 0.708615 0.648789
vt 0.660240 0.152690
vt 0.841816 0.014836
vt 0.839410 0.024802
vt 0.158286 0.766913
vt 0.158182 0.780206
vt 0.440391 0.523481
vt 0.441070 0.483522
vt 0.244983 0.588376
vt 0.430645 0.588259
vt 0.158286 0.662405
vt 0.158086 0.787112
vt 0.431368 0.532920
vt 0.246389 0.532881
vt 0.508327 0.981314
vt 0.508327 0.844480
vt 0.975173 0.844480
vt 0.975173 0.981314
vt 0.829579 0.697252
vt 0.787927 0.708900
vt 0.793766 0.667092
vt 0.873437 0.813354
vt 0.822310 0.820881
vt 0.583747 0.669389
vt 0.589655 0.713303
vt 0.547690 0.700748
vt 0.553033 0.820881
vt 0.035828 0.653996
vt 0.048038 0.650623
vt 0.034054 0.647020
vt 0.046930 0.643744
vt 0.522630 0.468201
vt 0.522630 0.168861
vt 0.457457 0.031429
vt 0.252339 0.030304
vt 0.252393 0.018501
vt 0.457523 0.020236
vt 0.498335 0.019674
vt 0.164810 0.471046
vt 0.156130 0.468717
vt 0.180807 0.376754
vt 0.617201 0.010870
vt 0.617894 0.020224
vt 0.035456 0.518281
vt 0.026802 0.515859
vt 0.073764 0.348031
vt 0.922501 0.518813
vt 0.913209 0.524114
vt 0.910239 0.514553
vt 0.917329 0.509624
vt 0.210323 0.142214
vt 0.166547 0.142160
vt 0.166559 0.132844
vt 0.988190 0.018006
vt 0.979082 0.015286
vt 0.979944 0.005499
vt 0.990531 0.007385
vt 0.914635 0.451164
vt 0.924258 0.456348
vt 0.210477 0.017999
vt 0.091751 0.020169
vt 0.092312 0.010870
vt 0.919984 0.163260
vt 0.913286 0.157946
vt 0.915668 0.149189
vt 0.925262 0.153744
vt 0.503497 0.812864
vt 0.809355 0.453502
vt 0.819637 0.448420
vt 0.820789 0.511849
vt 0.814077 0.507217
vt 0.212091 0.473924
vt 0.815460 0.157568
vt 0.824662 0.156571
vt 0.826534 0.164498
vt 0.818903 0.168583
vt 0.913168 0.223295
vt 0.923671 0.218255
vt 0.855229 0.649697
vt 0.865441 0.647181
vt 0.866441 0.657688
vt 0.857008 0.659174
vt 0.808359 0.220019
vt 0.817661 0.225536
vt 0.500199 0.144728
vt 0.544131 0.134691
vt 0.544271 0.144071
vt 0.252791 0.103792
vt 0.251424 0.142145
vt 0.979033 0.648713
vt 0.980668 0.658141
vt 0.819631 0.518788
vt 0.867373 0.022369
vt 0.868126 0.011443
vt 0.858047 0.010545
vt 0.857138 0.020742
vt 0.809739 0.517700
vt 0.990531 0.655874
vt 0.988238 0.645896
vt 0.158182 0.649112
vt 0.457610 0.144659
vt 0.456931 0.104700
vt 0.447184 0.039923
vt 0.261523 0.039805
vt 0.158086 0.642206
vt 0.447908 0.095261
vt 0.262929 0.095300
vt 0.015688 0.848173
vt 0.482534 0.848173
vt 0.482534 0.985007
vt 0.015688 0.985007
vn 0.1124 0.8518 0.5117
vn -0.1124 0.8518 0.5117
vn -0.3416 0.8756 0.3416
vn 0.3416 0.8756 0.3416
vn 0.4828 0.3885 0.7849
vn 0.8756 0.3416 0.3416
vn 0.3768 0.8775 0.2967
vn 0.2453 0.3712 0.8956
vn 0.1008 0.9122 0.3970
vn 0.8756 0.3416 -0.3416
vn 0.4828 0.3885 -0.7849
vn 0.3768 0.8775 -0.2967
vn 0.1008 0.9122 -0.3970
vn -0.0742 0.9634 0.2577
vn 0.0742 0.9634 0.2577
vn -0.1492 0.9164 0.3715
vn 0.0000 0.9425 -0.3342
vn 0.3463 0.3430 0.8732
vn 0.8779 0.3414 0.3358
vn 0.9239 0.3827 0.0000
vn -0.3463 0.3430 0.8732
vn 0.0000 0.0000 -1.0000
vn 0.9525 -0.1745 -0.2495
vn 0.9525 -0.1745 0.2495
vn -0.3146 0.3403 0.8861
vn -0.2787 -0.1285 0.9517
vn -0.2642 -0.1164 0.9574
vn 0.2453 0.3712 -0.8956
vn 0.3305 0.0608 -0.9419
vn -0.1995 -0.0341 0.9793
vn -0.2281 -0.0852 0.9699
vn -0.1800 -0.0000 0.9837
vn 0.9436 0.3312 0.0000
vn 1.0000 -0.0000 0.0000
vn 0.5916 0.0664 0.8035
vn 0.5497 0.0947 0.8300
vn 0.7429 0.0000 0.6694
vn 0.3305 0.0608 0.9419
vn -1.0000 0.0000 -0.0000
vn -0.9436 -0.3312 0.0000
vn 0.5916 0.0664 -0.8035
vn 0.7429 0.0000 -0.6694
vn 0.5497 0.0947 -0.8300
vn 0.9239 -0.0000 0.3827
vn 0.9525 0.1745 0.2495
vn -0.0000 -0.0000 1.0000
vn -0.0000 0.4112 -0.9116
vn -0.0000 0.4112 0.9116
vn -0.0000 0.9353 -0.3538
vn -0.0000 0.9353 0.3538
vn 0.3941 0.0014 0.9191
vn 0.9280 0.0013 0.3727
vn 0.9525 0.1745 -0.2495
vn 0.9239 -0.0000 -0.3827
vn 0.6631 -0.5446 -0.5135
vn 0.6631 -0.5446 0.5135
vn -0.3941 0.0014 0.9191
vn 0.6631 0.5446 0.5135
vn 0.6631 0.5446 -0.5135
vn -0.4828 0.3885 0.7849
vn -0.3768 0.8775 0.2967
vn -0.8756 0.3416 0.3416
vn -0.2453 0.3712 0.8956
vn -0.1008 0.9122 0.3970
vn -0.8756 0.3416 -0.3416
vn -0.3768 0.8775 -0.2967
vn -0.4828 0.3885 -0.7849
vn -0.1008 0.9122 -0.3970
vn -0.8779 0.3414 0.3358
vn -0.9239 0.3827 0.0000
vn 0.0000 0.4301 -0.9028
vn -0.9525 -0.1745 -0.2495
vn -0.9525 -0.1745 0.2495
vn 0.3146 0.3403 0.8861
vn 0.2642 -0.1164 0.9574
vn 0.2787 -0.1285 0.9517
vn -0.2453 0.3712 -0.8956
vn -0.3305 0.0608 -0.9419
vn 0.1995 -0.0341 0.9793
vn 0.1800 0.0000 0.9837
vn 0.2281 -0.0852 0.9699
vn -0.9436 0.3312 0.0000
vn -0.5916 0.0664 0.8035
vn -0.7429 0.0000 0.6694
vn -0.5497 0.0947 0.8300
vn -0.3305 0.0608 0.9419
vn 0.1492 0.9164 0.3715
vn 0.9436 -0.3312 0.0000
vn -0.5916 0.0664 -0.8035
vn -0.5497 0.0947 -0.8300
vn -0.7429 0.0000 -0.6694
vn -0.9525 0.1745 0.2495
vn -0.9239 0.0000 0.3827
vn -0.9280 0.0013 0.3727
vn -0.9239 -0.0000 -0.3827
vn -0.9525 0.1745 -0.2495
vn -0.6631 -0.5446 0.5135
vn -0.6631 -0.5446 -0.5135
vn -0.6631 0.5446 0.5135
vn -0.6631 0.5446 -0.5135
usemtl LivingModule_1
s 1
f 1/1/1 2/2/2 3/3/3 4/4/4
f 5/5/5 6/6/6 7/7/7
f 8/8/8 5/5/5 7/7/7 9/9/9
f 10/10/10 11/11/11 12/12/12
f 13/13/13 9/9/9 7/7/7 12/12/12
f 6/6/6 10/10/10 12/12/12 7/7/7
f 1/14/1 14/15/14 15/16/15 2/17/2
f 16/18/16 17/19/17 14/15/14
f 4/20/4 18/21/18 19/22/19
f 1/23/1 4/20/4 19/22/19 20/24/20
f 4/4/4 3/3/3 21/25/21 18/21/18
f 22/26/22 23/27/22 24/28/22 25/29/22
f 26/30/23 10/31/10 6/32/6 27/33/24
f 11/34/11 10/31/10 26/30/23
f 28/35/25 1/14/1 20/36/26 29/37/27
f 30/38/28 11/34/11 31/39/29
f 32/40/30 33/41/31 34/42/32
f 35/43/33 8/44/34 36/45/34 37/46/33
f 38/47/35 39/48/36 40/49/37
f 41/50/33 42/51/34 43/52/34 44/53/33
f 23/27/22 45/54/22 46/55/22 24/28/22
f 8/44/34 9/56/34 47/57/34 36/45/34
f 5/58/5 8/59/8 35/60/38
f 30/61/34 31/62/33 48/63/33 49/64/34
f 11/11/11 30/65/28 13/13/13 12/12/12
f 16/66/39 28/67/39 50/68/39 51/69/39
f 15/16/15 14/15/14 17/19/17 52/70/17
f 46/71/40 53/72/39 54/73/39 55/74/40
f 1/14/1 28/35/25 16/18/16 14/15/14
f 9/56/34 13/75/34 56/76/34 47/57/34
f 32/77/40 34/78/39 57/79/39 58/80/40
f 17/81/39 16/66/39 51/69/39 59/82/39
f 60/83/41 42/84/42 41/85/43
f 38/47/35 61/86/44 62/87/45
f 63/88/46 58/80/46 57/79/46 64/89/46
f 54/73/47 49/64/47 48/63/22 55/74/22
f 36/45/48 50/68/48 65/90/46 37/46/46
f 49/64/47 54/73/47 59/82/49 56/76/49
f 59/82/49 51/69/50 47/57/50 56/76/49
f 50/68/48 36/45/48 47/57/50 51/69/50
f 43/52/22 66/91/22 67/92/22 44/53/22
f 25/93/39 24/94/40 67/92/40 66/91/39
f 28/67/39 29/95/40 65/90/40 50/68/39
f 13/75/34 30/61/34 49/64/34 56/76/34
f 53/72/39 17/81/39 59/82/39 54/73/39
f 40/96/34 39/97/33 63/88/33 64/89/34
f 29/95/40 32/77/40 58/80/40 65/90/40
f 24/94/40 46/71/40 55/74/40 67/92/40
f 39/97/33 35/43/33 37/46/33 63/88/33
f 31/62/33 41/50/33 44/53/33 48/63/33
f 37/46/46 65/90/46 58/80/46 63/88/46
f 44/53/22 67/92/22 55/74/22 48/63/22
f 5/58/5 27/33/24 6/32/6
f 5/58/5 38/47/35 62/87/45 27/33/24
f 18/21/18 68/98/51 69/99/52 19/22/19
f 29/37/27 20/36/26 33/41/31 32/40/30
f 5/58/5 35/60/38 39/48/36 38/47/35
f 60/83/41 41/85/43 31/39/29 11/34/11
f 60/83/41 70/100/53 71/101/54
f 60/83/41 11/34/11 26/30/23 70/100/53
f 71/101/54 70/100/53 62/87/45 61/86/44
f 26/30/23 27/33/24 72/102/55 73/103/56
f 68/98/51 18/21/18 21/25/21 74/104/57
f 33/105/34 20/24/20 19/22/19 69/99/52
f 70/100/53 26/30/23 73/103/56 75/106/58
f 62/87/45 70/100/53 75/106/58 76/107/59
f 27/33/24 62/87/45 76/107/59 72/102/55
f 75/108/34 73/109/34 72/110/34 76/111/34
f 77/112/60 78/113/61 79/114/62
f 80/115/63 81/116/64 78/113/61 77/112/60
f 82/117/65 83/118/66 84/119/67
f 85/120/68 83/118/66 78/113/61 81/116/64
f 79/114/62 78/113/61 83/118/66 82/117/65
f 3/121/3 86/122/69 21/25/21
f 2/123/2 87/124/70 86/122/69 3/121/3
f 46/55/22 45/54/22 88/125/71 53/126/71
f 89/127/72 90/128/73 79/129/62 82/130/65
f 84/131/67 89/127/72 82/130/65
f 91/132/74 92/133/75 87/134/76 2/17/2
f 93/135/77 94/136/78 84/131/67
f 95/137/79 96/138/80 97/139/81
f 98/140/82 99/141/82 100/142/39 80/143/39
f 101/144/83 102/145/84 103/146/85
f 104/147/82 105/148/82 106/149/39 107/150/39
f 17/19/17 53/126/71 88/125/71 52/70/17
f 80/143/39 100/142/39 108/151/39 81/152/39
f 77/153/60 98/154/86 80/155/63
f 93/156/39 109/157/39 110/158/82 94/159/82
f 84/119/67 83/118/66 85/120/68 93/160/77
f 111/161/34 112/162/34 113/163/34 91/164/34
f 52/70/17 111/165/87 15/16/15
f 45/166/88 114/167/88 115/168/34 88/169/34
f 2/17/2 15/16/15 111/165/87 91/132/74
f 81/152/39 108/151/39 116/170/39 85/171/39
f 95/172/88 117/173/88 118/174/34 96/175/34
f 52/176/34 119/177/34 112/162/34 111/161/34
f 120/178/89 104/179/90 107/180/91
f 101/144/83 121/181/92 122/182/93
f 123/183/46 124/184/46 118/174/46 117/173/46
f 115/168/47 114/167/22 110/158/22 109/157/47
f 100/142/48 99/141/46 125/185/46 113/163/48
f 109/157/47 116/170/49 119/177/49 115/168/47
f 119/177/49 116/170/49 108/151/50 112/162/50
f 113/163/48 112/162/50 108/151/50 100/142/48
f 106/149/22 105/148/22 126/186/22 127/187/22
f 22/188/34 127/187/34 126/186/88 23/189/88
f 91/164/34 113/163/34 125/185/88 92/190/88
f 85/171/39 116/170/39 109/157/39 93/156/39
f 88/169/34 115/168/34 119/177/34 52/176/34
f 102/191/39 124/184/39 123/183/82 103/192/82
f 92/190/88 125/185/88 117/173/88 95/172/88
f 23/189/88 126/186/88 114/167/88 45/166/88
f 103/192/82 123/183/82 99/141/82 98/140/82
f 94/159/82 110/158/82 105/148/82 104/147/82
f 99/141/46 123/183/46 117/173/46 125/185/46
f 105/148/22 110/158/22 114/167/22 126/186/22
f 77/153/60 79/129/62 90/128/73
f 77/153/60 90/128/73 121/181/92 101/144/83
f 21/25/21 86/122/69 128/193/94 74/104/57
f 92/133/75 95/137/79 97/139/81 87/134/76
f 77/153/60 101/144/83 103/146/85 98/154/86
f 120/178/89 84/131/67 94/136/78 104/179/90
f 120/178/89 129/194/95 130/195/96
f 120/178/89 130/195/96 89/127/72 84/131/67
f 129/194/95 122/182/93 121/181/92 130/195/96
f 89/127/72 131/196/97 132/197/98 90/128/73
f 97/198/39 128/193/94 86/122/69 87/124/70
f 130/195/96 133/199/99 131/196/97 89/127/72
f 121/181/92 134/200/100 133/199/99 130/195/96
f 90/128/73 132/197/98 134/200/100 121/181/92
f 133/201/39 134/202/39 132/203/39 131/204/39
