# Blender v2.81 (sub 16) OBJ File: 'All.blend'
# www.blender.org
mtllib LivingModule_2.mtl
v -1.700000 4.000000 4.721088
v -1.700000 4.000000 4.473438
v -2.000000 3.700001 4.721088
v -1.700000 3.700001 4.995677
v -2.000000 0.000000 -4.526562
v -1.758315 0.000000 -6.286907
v -2.000000 3.700001 4.473438
v -12.999999 3.600002 3.473438
v -12.999999 3.600002 -3.526562
v -5.001272 3.700001 -5.573856
v -8.334604 3.700002 5.520733
v -7.723074 0.300001 -5.573855
v -7.723074 0.000001 -5.573855
v -8.334604 3.700001 -5.573856
v -8.334604 3.700001 -5.870399
v -12.000000 0.000002 -4.526562
v -11.056408 0.300002 -5.573856
v -11.056408 0.000002 -5.573856
v -11.056408 0.300002 5.520733
v -11.056408 0.000002 5.520733
v -11.056408 0.000002 5.817276
v -11.056408 0.300002 5.817276
v -5.001270 3.700001 5.520733
v -8.334604 3.700002 5.817276
v -5.001270 3.700001 5.817276
v -7.723074 0.000001 -5.870399
v -7.723074 0.300001 -5.870399
v -12.000000 0.000002 4.473438
v -7.723075 0.000001 5.520733
v -2.000000 0.000001 4.473438
v -7.723074 0.300002 5.520733
v -13.000000 0.000002 -3.526562
v -13.000000 1.333335 -3.526562
v -11.056408 0.300002 -5.870399
v -11.056408 0.000002 -5.870399
v -5.001272 3.700001 -5.870399
v -7.723075 0.000002 5.817276
v -7.723074 0.300002 5.817276
v -2.000000 0.000001 4.721088
v -1.725412 0.000000 4.995677
v -13.000000 1.333335 3.473438
v -13.000000 0.000002 3.473438
v -12.731049 3.440357 -3.348565
v -12.731049 3.440357 3.295440
v -1.459804 9.739586 -6.526562
v -1.483557 -0.000000 -6.526562
v -12.731050 1.492980 -3.348565
v -12.731050 1.492980 3.295440
v -12.488508 1.492980 3.295440
v -12.488508 1.492980 -3.348565
v -12.488507 3.440357 3.295440
v -12.488507 3.440357 -3.348565
v -1.699998 11.281433 3.473438
v -1.699998 10.281433 4.473438
v -11.999998 10.281435 -4.526563
v -12.999998 10.281435 -3.526563
v -11.999998 11.281435 -3.526563
v -8.334603 10.281434 -5.573856
v -8.334604 11.281434 -4.341124
v -12.999998 10.281435 3.473437
v -11.999998 10.281435 4.473437
v -11.999998 11.281435 3.473437
v -8.334603 11.281434 4.288000
v -1.699998 10.281433 -4.526562
v -1.699998 11.281433 -3.526562
v -1.718008 9.999693 -6.284761
v -1.999998 9.981433 -4.526562
v -5.001269 10.281434 5.520733
v -5.001269 11.281434 4.288000
v -12.999998 9.881434 3.473438
v -12.999998 9.881434 -3.526562
v -5.001269 10.281434 -5.573856
v -8.334603 10.281434 5.520733
v -8.334603 10.281434 -5.870399
v -8.334604 11.631627 -4.341124
v -8.334603 10.281434 5.817276
v -5.001270 11.281434 -4.341125
v -5.001269 10.281434 -5.870399
v -5.001270 11.631627 -4.341125
v -5.001269 10.281434 5.817276
v -8.334603 11.631627 4.288000
v -5.001269 11.631627 4.288000
v -12.999999 7.614768 -3.526562
v -12.999999 7.614768 3.473438
v -12.731048 9.721790 -3.348565
v -12.731048 9.721790 3.295440
v -12.731049 7.774413 -3.348565
v -12.731049 7.774413 3.295440
v -12.488507 7.774413 3.295440
v -12.488507 7.774413 -3.348565
v -12.488506 9.721790 3.295440
v -12.488506 9.721790 -3.348565
v 1.700001 4.000000 4.721088
v 1.700001 4.000000 4.473438
v 1.700001 3.700000 4.995677
v 2.000001 3.700000 4.721088
v 2.000000 -0.000001 -4.526562
v 1.758315 -0.000001 -6.286907
v 2.000001 3.700000 4.473438
v 13.000001 3.599998 3.473439
v 13.000001 3.599998 -3.526561
v 5.001273 3.699999 -5.573855
v 8.334606 3.699999 5.520733
v 7.723074 0.299999 -5.573855
v 7.723074 -0.000002 -5.573855
v 8.334606 3.699998 -5.573855
v 8.334606 3.699998 -5.870399
v 12.000000 -0.000002 -4.526561
v 11.056408 -0.000002 -5.573855
v 11.056408 0.299998 -5.573855
v 11.056408 0.299998 5.520734
v 11.056408 0.299998 5.817277
v 11.056408 -0.000002 5.817277
v 11.056408 -0.000002 5.520734
v 5.001271 3.700000 5.520733
v 8.334606 3.699999 5.817276
v 5.001271 3.700000 5.817276
v 7.723074 0.299998 -5.870399
v 7.723074 -0.000002 -5.870399
v 12.000000 -0.000002 4.473439
v 7.723075 -0.000001 5.520733
v 7.723074 0.299999 5.520733
v 2.000000 -0.000000 4.473438
v 13.000000 1.333331 -3.526561
v 13.000000 -0.000002 -3.526561
v 11.056408 0.299998 -5.870398
v 11.056408 -0.000002 -5.870398
v 5.001273 3.699999 -5.870399
v 7.723074 0.299999 5.817276
v 7.723075 -0.000001 5.817276
v 1.725412 -0.000000 4.995677
v 2.000000 -0.000000 4.721088
v 13.000000 -0.000002 3.473439
v 13.000000 1.333331 3.473439
v 12.731050 3.440353 3.295441
v 12.731050 3.440353 -3.348564
v 1.459808 9.739586 -6.526562
v 1.483557 -0.000001 -6.526562
v 12.731050 1.492976 -3.348564
v 12.488508 1.492976 -3.348564
v 12.488508 1.492976 3.295441
v 12.731050 1.492976 3.295441
v 12.488509 3.440353 -3.348564
v 12.488509 3.440353 3.295441
v 1.700002 11.281433 3.473438
v 1.700002 10.281433 4.473438
v 12.000002 10.281431 -4.526562
v 12.000002 11.281431 -3.526562
v 13.000002 10.281431 -3.526562
v 8.334607 10.281432 -5.573856
v 8.334608 11.281432 -4.341124
v 13.000002 10.281431 3.473438
v 12.000002 11.281431 3.473438
v 12.000002 10.281431 4.473438
v 8.334607 11.281432 4.288000
v 1.700002 10.281433 -4.526562
v 1.700002 11.281433 -3.526562
v 1.718012 9.999693 -6.284761
v 2.000002 9.981433 -4.526562
v 5.001273 10.281432 5.520733
v 5.001272 11.281432 4.288001
v 13.000002 9.881431 3.473438
v 13.000002 9.881431 -3.526562
v 5.001273 10.281432 -5.573855
v 8.334607 10.281432 5.520733
v 8.334607 10.281432 -5.870399
v 8.334608 11.631625 -4.341124
v 8.334607 10.281432 5.817276
v 5.001275 11.281432 -4.341124
v 5.001275 11.631625 -4.341124
v 5.001273 10.281432 -5.870399
v 5.001273 10.281432 5.817276
v 8.334607 11.631625 4.288000
v 5.001272 11.631625 4.288000
v 13.000001 7.614764 -3.526562
v 13.000001 7.614764 3.473438
v 12.731051 9.721786 3.295440
v 12.731051 9.721786 -3.348565
v 12.731050 7.774409 -3.348565
v 12.488509 7.774409 -3.348565
v 12.488509 7.774409 3.295440
v 12.731050 7.774409 3.295440
v 12.488510 9.721786 -3.348565
v 12.488510 9.721786 3.295440
vt 0.025527 0.374044
vt 0.101450 0.374161
vt 0.101441 0.379751
vt 0.025514 0.379574
vt 0.020423 0.372750
vt 0.016692 0.364398
vt 0.025545 0.364963
vt 0.101453 0.365021
vt 0.763662 0.274772
vt 0.723999 0.275058
vt 0.724774 0.052329
vt 0.764351 0.052451
vt 0.014923 0.374766
vt 0.011469 0.365344
vt 0.700408 0.740347
vt 0.698394 0.734220
vt 0.549462 0.733453
vt 0.552009 0.739127
vt 0.461844 0.275252
vt 0.591595 0.276964
vt 0.462100 0.281930
vt 0.416669 0.280747
vt 0.449761 0.279665
vt 0.448548 0.286450
vt 0.046014 0.675675
vt 0.039046 0.673405
vt 0.036801 0.680292
vt 0.043077 0.681184
vt 0.798813 0.482724
vt 0.806249 0.404988
vt 0.806664 0.476903
vt 0.779954 0.762205
vt 0.785076 0.760603
vt 0.783492 0.755540
vt 0.776971 0.756415
vt 0.194223 0.284378
vt 0.161306 0.290246
vt 0.160057 0.283241
vt 0.891018 0.342016
vt 0.891694 0.476082
vt 0.884137 0.342666
vt 0.384604 0.280942
vt 0.384022 0.250816
vt 0.779351 0.681323
vt 0.785857 0.680486
vt 0.103856 0.196565
vt 0.194367 0.040514
vt 0.227766 0.105406
vt 0.227536 0.198028
vt 0.384076 0.197580
vt 0.384125 0.106576
vt 0.037967 0.754906
vt 0.044448 0.755870
vt 0.036314 0.759949
vt 0.041416 0.761621
vt 0.416669 0.044552
vt 0.504244 0.195747
vt 0.504244 0.044552
vt 0.783607 0.673405
vt 0.776444 0.675681
vt 0.700881 0.821416
vt 0.698954 0.815415
vt 0.119957 0.821263
vt 0.121906 0.815288
vt 0.122806 0.734436
vt 0.120780 0.740506
vt 0.016351 0.282450
vt 0.025015 0.282404
vt 0.518543 0.196540
vt 0.227903 0.253292
vt 0.227936 0.284578
vt 0.378090 0.202560
vt 0.233547 0.203330
vt 0.010806 0.282495
vt 0.102047 0.282404
vt 0.378177 0.245905
vt 0.233888 0.247888
vt 0.236694 0.245496
vt 0.375467 0.243884
vt 0.907387 0.361019
vt 0.989020 0.361019
vt 0.989020 0.639533
vt 0.907387 0.639533
vt 0.375259 0.204638
vt 0.236361 0.205650
vt 0.620440 0.481956
vt 0.654904 0.480854
vt 0.654904 0.561082
vt 0.620440 0.559981
vt 0.598151 0.380535
vt 0.572365 0.403758
vt 0.568220 0.373058
vt 0.551453 0.813701
vt 0.625800 0.295919
vt 0.588472 0.292389
vt 0.410910 0.403814
vt 0.385149 0.380532
vt 0.415080 0.373140
vt 0.395187 0.292389
vt 0.436126 0.485768
vt 0.466092 0.484353
vt 0.466092 0.557583
vt 0.436126 0.556169
vt 0.721473 0.316830
vt 0.645743 0.316830
vt 0.645342 0.277169
vt 0.721874 0.277169
vt 0.585452 0.054727
vt 0.514492 0.050004
vt 0.661084 0.403448
vt 0.630683 0.408267
vt 0.228878 0.049682
vt 0.228903 0.039715
vt 0.384040 0.044329
vt 0.383844 0.053389
vt 0.591595 0.047546
vt 0.548855 0.819405
vt 0.509307 0.732031
vt 0.506612 0.739094
vt 0.357831 0.295771
vt 0.509127 0.820421
vt 0.506479 0.813367
vt 0.446960 0.414337
vt 0.413856 0.416839
vt 0.311138 0.732294
vt 0.313842 0.739341
vt 0.311430 0.820609
vt 0.314071 0.813556
vt 0.268586 0.739477
vt 0.269093 0.813881
vt 0.271122 0.733817
vt 0.271685 0.819579
vt 0.103948 0.040460
vt 0.378094 0.058274
vt 0.234715 0.055280
vt 0.730867 0.315800
vt 0.798813 0.559213
vt 0.378108 0.101546
vt 0.233898 0.100071
vt 0.236766 0.097685
vt 0.375224 0.099443
vt 0.791520 0.039602
vt 0.873154 0.039602
vt 0.873154 0.318116
vt 0.791520 0.318116
vt 0.375485 0.060303
vt 0.237439 0.057793
vt 0.716123 0.269259
vt 0.716652 0.052324
vt 0.651093 0.269259
vt 0.650564 0.052324
vt 0.106573 0.372818
vt 0.110313 0.364463
vt 0.603555 0.274772
vt 0.602867 0.052451
vt 0.642443 0.052329
vt 0.643217 0.275058
vt 0.115540 0.365413
vt 0.112076 0.374840
vt 0.118282 0.841851
vt 0.261530 0.841492
vt 0.264039 0.835928
vt 0.120267 0.836001
vt 0.144107 0.271503
vt 0.143851 0.278180
vt 0.014356 0.273214
vt 0.319111 0.427724
vt 0.351416 0.421725
vt 0.352693 0.428600
vt 0.777786 0.778879
vt 0.780700 0.784753
vt 0.787479 0.783979
vt 0.785239 0.776612
vt 0.806664 0.565034
vt 0.806249 0.636949
vt 0.041702 0.861538
vt 0.044687 0.856028
vt 0.038458 0.855042
vt 0.036813 0.859874
vt 0.095780 0.427283
vt 0.062217 0.428616
vt 0.063400 0.421725
vt 0.891018 0.699920
vt 0.884137 0.699271
vt 0.891694 0.565854
vt 0.286267 0.458355
vt 0.286509 0.427901
vt 0.043964 0.784131
vt 0.037931 0.783223
vt 0.097457 0.666893
vt 0.007542 0.514134
vt 0.129891 0.603703
vt 0.129513 0.511853
vt 0.286741 0.512250
vt 0.286967 0.604135
vt 0.777063 0.861951
vt 0.783781 0.861160
vt 0.785319 0.866383
vt 0.780034 0.867939
vt 0.320693 0.667361
vt 0.408532 0.513376
vt 0.409544 0.666774
vt 0.040146 0.776612
vt 0.046834 0.778852
vt 0.116786 0.919983
vt 0.118732 0.914220
vt 0.696145 0.921334
vt 0.698041 0.927510
vt 0.696576 0.838055
vt 0.698579 0.844375
vt 0.110717 0.282457
vt 0.087408 0.192790
vt 0.128568 0.426595
vt 0.129162 0.457490
vt 0.135411 0.506721
vt 0.280642 0.507192
vt 0.116266 0.282506
vt 0.280413 0.463397
vt 0.277696 0.465495
vt 0.138144 0.464858
vt 0.135256 0.462646
vt 0.983871 0.041959
vt 0.983871 0.320473
vt 0.902237 0.320473
vt 0.902237 0.041959
vt 0.277744 0.505053
vt 0.138155 0.504555
vt 0.354262 0.323096
vt 0.324330 0.330574
vt 0.328476 0.299873
vt 0.261614 0.914397
vt 0.381910 0.407712
vt 0.344582 0.411243
vt 0.167021 0.299818
vt 0.171190 0.330491
vt 0.141259 0.323100
vt 0.151298 0.411243
vt 0.020499 0.050977
vt 0.091459 0.046254
vt 0.661084 0.638488
vt 0.630683 0.633669
vt 0.130723 0.657569
vt 0.287009 0.658912
vt 0.287433 0.668578
vt 0.130653 0.666751
vt 0.014356 0.043797
vt 0.264095 0.920029
vt 0.306373 0.840986
vt 0.303685 0.833972
vt 0.113941 0.407860
vt 0.303397 0.921962
vt 0.306112 0.914980
vt 0.446960 0.627599
vt 0.413856 0.625097
vt 0.500314 0.841602
vt 0.503080 0.834460
vt 0.502173 0.923823
vt 0.499577 0.916657
vt 0.546530 0.841707
vt 0.545212 0.917727
vt 0.543971 0.835908
vt 0.542495 0.923498
vt 0.008616 0.667515
vt 0.136471 0.652513
vt 0.280976 0.653635
vt 0.636350 0.315800
vt 0.281023 0.609343
vt 0.278252 0.611576
vt 0.138988 0.610917
vt 0.136045 0.608765
vt 0.992141 0.667396
vt 0.992142 0.945910
vt 0.910508 0.945910
vt 0.910508 0.667396
vt 0.278135 0.651330
vt 0.139105 0.650402
vn -0.3391 0.8694 0.3594
vn 0.3391 0.8694 0.3594
vn 0.0824 0.5374 0.8393
vn -0.0824 0.5374 0.8393
vn -0.8718 0.3389 0.3537
vn -0.3307 0.3273 0.8852
vn 0.3307 0.3273 0.8852
vn -0.9209 0.3648 -0.1375
vn -0.6126 0.6166 -0.4946
vn -0.8838 0.0027 -0.4678
vn -0.9891 0.0035 -0.1472
vn -0.9239 0.3827 0.0000
vn -0.9436 0.3312 0.0000
vn -1.0000 0.0000 -0.0000
vn 0.1771 -0.0532 -0.9828
vn 0.2432 -0.0715 -0.9673
vn 0.1800 0.0000 -0.9837
vn -0.6398 0.1309 -0.7573
vn -0.7427 0.3558 -0.5673
vn -0.7429 0.0000 -0.6694
vn 0.2609 -0.0590 0.9636
vn 0.2813 -0.2234 0.9333
vn 0.9436 -0.3312 0.0000
vn 1.0000 0.0000 0.0000
vn -0.6398 0.1309 0.7573
vn -0.7429 0.0000 0.6694
vn -0.7427 0.3558 0.5673
vn 0.1800 -0.0000 0.9837
vn 0.2281 -0.0852 0.9699
vn 0.1995 -0.0341 0.9793
vn -0.9239 0.0000 -0.3827
vn -0.9525 0.1745 -0.2495
vn 0.0000 -0.0000 -1.0000
vn -0.3206 0.0499 0.9459
vn -0.4548 0.3542 0.8171
vn -0.9525 0.1745 0.2495
vn -0.9525 -0.1745 0.2495
vn -0.9525 -0.1745 -0.2495
vn -0.0000 0.0000 1.0000
vn -0.4548 0.3542 -0.8171
vn -0.3206 0.0499 -0.9459
vn -0.2453 0.3712 -0.8956
vn -0.9195 0.0013 0.3931
vn -0.3736 0.0013 0.9276
vn 0.2741 -0.0495 -0.9604
vn -0.9239 0.0000 0.3827
vn -0.4226 -0.6507 0.6309
vn -0.4226 -0.6507 -0.6309
vn 0.3736 0.0013 0.9276
vn -0.4226 0.6507 0.6309
vn -0.4226 0.6507 -0.6309
vn 0.0000 0.7071 -0.7071
vn 0.0000 0.7071 0.7071
vn 0.0000 -0.7071 0.7071
vn 0.0000 -0.7071 -0.7071
vn 0.0440 0.9377 0.3447
vn 0.1359 0.4081 0.9028
vn -0.1359 0.4081 0.9028
vn -0.0440 0.9377 0.3447
vn -0.8756 0.3416 -0.3416
vn -0.3768 0.8775 -0.2967
vn 0.0000 0.4112 -0.9116
vn -0.1008 0.9122 -0.3970
vn -0.8756 0.3416 0.3416
vn -0.3768 0.8775 0.2967
vn -0.1008 0.9122 0.3970
vn -0.0763 0.8078 -0.5845
vn 0.0440 0.9377 -0.3447
vn -0.0440 0.9377 -0.3447
vn 0.0763 0.8078 -0.5845
vn 0.6126 0.6166 -0.4946
vn 0.3099 -0.1669 -0.9360
vn 0.2870 0.3572 -0.8888
vn 0.2708 0.3664 0.8902
vn 0.1130 0.9092 0.4007
vn -0.2453 0.3712 0.8956
vn 0.1130 0.9092 -0.4007
vn -0.0000 0.4112 0.9116
vn 0.0000 0.9353 0.3538
vn 0.0000 0.9353 -0.3538
vn -0.2805 0.2856 -0.9164
vn -0.3620 0.0013 -0.9322
vn 0.2805 0.2856 -0.9164
vn 0.3582 0.0022 -0.9336
vn 0.8718 0.3389 0.3537
vn 0.9209 0.3648 -0.1375
vn 0.9889 0.0029 -0.1484
vn 0.8838 0.0027 -0.4678
vn 0.9239 0.3827 0.0000
vn 0.9436 0.3312 0.0000
vn -0.1771 -0.0532 -0.9828
vn -0.1800 0.0000 -0.9837
vn -0.2435 -0.0705 -0.9673
vn 0.6398 0.1309 -0.7573
vn 0.7429 0.0000 -0.6694
vn 0.7427 0.3558 -0.5673
vn -0.2813 -0.2234 0.9333
vn -0.2609 -0.0590 0.9636
vn -0.9436 -0.3312 0.0000
vn 0.6398 0.1309 0.7573
vn 0.7427 0.3558 0.5673
vn 0.7429 0.0000 0.6694
vn -0.1800 -0.0000 0.9837
vn -0.1995 -0.0341 0.9793
vn -0.2281 -0.0852 0.9699
vn 0.9525 0.1745 -0.2495
vn 0.9239 -0.0000 -0.3827
vn 0.4548 0.3542 0.8171
vn 0.3206 0.0499 0.9459
vn 0.9525 0.1745 0.2495
vn 0.9525 -0.1745 0.2495
vn 0.9525 -0.1745 -0.2495
vn 0.4548 0.3542 -0.8171
vn 0.3206 0.0499 -0.9459
vn 0.2453 0.3712 -0.8956
vn 0.9195 0.0013 0.3931
vn -0.2741 -0.0495 -0.9604
vn 0.9239 0.0000 0.3827
vn 0.4226 -0.6507 -0.6309
vn 0.4226 -0.6507 0.6309
vn 0.4226 0.6507 0.6309
vn 0.4226 0.6507 -0.6309
vn 0.3768 0.8775 -0.2967
vn 0.8756 0.3416 -0.3416
vn 0.1008 0.9122 -0.3970
vn 0.8756 0.3416 0.3416
vn 0.3768 0.8775 0.2967
vn 0.1008 0.9122 0.3970
vn -0.3099 -0.1669 -0.9360
vn -0.2870 0.3572 -0.8888
vn -0.2708 0.3664 0.8902
vn -0.1130 0.9092 0.4007
vn 0.2453 0.3712 0.8956
vn -0.1130 0.9092 -0.4007
usemtl LivingModule_2
s 1
f 1/1/1 93/2/2 94/3/3 2/4/4
f 1/5/1 3/6/5 4/7/6
f 93/2/2 1/1/1 4/7/6 95/8/7
f 67/9/8 66/10/9 6/11/10 5/12/11
f 1/5/1 2/13/4 7/14/12 3/6/5
f 15/15/13 14/16/13 58/17/14 74/18/14
f 12/19/15 5/20/16 13/21/17
f 16/22/18 17/23/19 18/24/20
f 19/25/13 20/26/14 21/27/14 22/28/13
f 2/29/4 23/30/21 7/31/22
f 12/32/23 13/33/24 26/34/24 27/35/23
f 28/36/25 20/37/26 19/38/27
f 29/39/28 30/40/29 31/41/30
f 16/22/18 32/42/31 33/43/32
f 34/44/33 27/35/33 26/34/33 35/45/33
f 28/36/25 11/46/34 61/47/35
f 84/48/36 8/49/37 28/36/25 61/47/35
f 9/50/38 8/49/37 84/48/36 83/51/32
f 21/27/39 37/52/39 38/53/39 22/28/39
f 29/54/24 31/55/23 38/53/23 37/52/24
f 16/22/18 9/50/38 83/51/32 55/56/40
f 14/57/41 16/22/18 55/56/40 58/58/42
f 18/59/14 17/60/13 34/44/13 35/45/14
f 10/61/23 12/32/23 27/35/23 36/62/23
f 31/55/23 23/63/23 25/64/23 38/53/23
f 17/60/13 14/16/13 15/15/13 34/44/13
f 11/65/13 19/25/13 22/28/13 24/66/13
f 15/15/33 36/62/33 27/35/33 34/44/33
f 22/28/39 38/53/39 25/64/39 24/66/39
f 16/22/18 33/43/32 9/50/38
f 3/6/5 39/67/43 40/68/44 4/7/6
f 10/69/45 5/20/16 12/19/15
f 16/22/18 14/57/41 17/23/19
f 28/36/25 19/38/27 11/46/34
f 31/41/30 30/40/29 7/31/22 23/30/21
f 28/36/25 41/70/36 42/71/46
f 28/36/25 8/49/37 41/70/36
f 42/71/46 41/70/36 33/43/32 32/42/31
f 8/49/37 9/50/38 43/72/47 44/73/48
f 39/67/43 3/6/5 7/14/12 30/74/14
f 131/75/49 95/8/7 4/7/6 40/68/44
f 47/76/50 48/77/51 49/78/52 50/79/53
f 41/70/36 8/49/37 44/73/48 48/77/51
f 33/43/32 41/70/36 48/77/51 47/76/50
f 9/50/38 33/43/32 47/76/50 43/72/47
f 49/80/14 51/81/14 52/82/14 50/83/14
f 43/72/47 47/76/50 50/79/53 52/84/54
f 44/73/48 43/72/47 52/84/54 51/85/55
f 48/77/51 44/73/48 51/85/55 49/78/52
f 53/86/56 54/87/57 146/88/58 145/89/59
f 55/90/40 56/91/60 57/92/61
f 36/62/33 15/15/33 74/18/62 78/93/62
f 58/94/42 55/90/40 57/92/61 59/95/63
f 60/96/64 61/97/35 62/98/65
f 63/99/66 59/95/63 57/92/61 62/98/65
f 56/91/60 60/96/64 62/98/65 57/92/61
f 64/100/67 65/101/68 157/102/69 156/103/70
f 65/101/68 53/86/56 145/89/59 157/102/69
f 64/104/67 156/105/70 158/106/71 66/107/9
f 67/108/72 5/20/16 10/69/45 72/109/73
f 68/110/74 54/87/57 53/86/56 69/111/75
f 70/112/37 60/113/64 56/114/60 71/115/38
f 61/47/35 60/113/64 70/112/37
f 72/109/73 64/116/67 67/108/72
f 36/62/23 78/93/24 72/117/24 10/61/23
f 58/17/14 59/118/14 75/119/14 74/18/14
f 61/97/35 73/120/76 63/99/66 62/98/65
f 77/121/24 72/117/24 78/93/24 79/122/24
f 53/86/56 65/101/68 77/123/77 69/111/75
f 64/100/67 72/124/73 77/123/77 65/101/68
f 59/118/14 63/125/14 81/126/14 75/119/14
f 69/127/24 77/121/24 79/122/24 82/128/24
f 76/129/78 80/130/78 82/128/79 81/126/79
f 82/128/79 79/122/80 75/119/80 81/126/79
f 78/93/62 74/18/62 75/119/80 79/122/80
f 63/125/14 73/131/14 76/129/14 81/126/14
f 68/132/24 69/127/24 82/128/24 80/130/24
f 23/63/23 68/132/24 80/130/24 25/64/23
f 73/131/14 11/65/13 24/66/13 76/129/14
f 24/66/39 25/64/39 80/130/78 76/129/78
f 55/56/40 71/115/38 56/114/60
f 55/56/40 83/51/32 71/115/38
f 61/47/35 11/46/34 73/133/76
f 23/30/21 2/29/4 54/87/57 68/110/74
f 61/47/35 70/112/37 84/48/36
f 70/112/37 71/115/38 85/134/47 86/135/48
f 64/104/67 66/107/9 67/136/8
f 94/137/3 146/88/58 54/87/57 2/29/4
f 87/138/50 88/139/51 89/140/52 90/141/53
f 84/48/36 70/112/37 86/135/48 88/139/51
f 83/51/32 84/48/36 88/139/51 87/138/50
f 71/115/38 83/51/32 87/138/50 85/134/47
f 89/142/14 91/143/14 92/144/14 90/145/14
f 85/134/47 87/138/50 90/141/53 92/146/54
f 86/135/48 85/134/47 92/146/54 91/147/55
f 88/139/51 86/135/48 91/147/55 89/140/52
f 6/11/10 66/10/9 45/148/81 46/149/82
f 66/107/9 158/106/71 137/150/83 45/148/81
f 45/148/81 137/150/83 138/151/84 46/149/82
f 93/152/2 95/8/7 96/153/85
f 159/154/86 97/155/87 98/156/88 158/157/71
f 93/152/2 96/153/85 99/158/89 94/159/3
f 107/160/90 166/161/24 150/162/24 106/163/90
f 104/164/91 105/165/92 97/166/93
f 108/167/94 109/168/95 110/169/96
f 111/170/90 112/171/90 113/172/24 114/173/24
f 94/137/3 99/174/97 115/175/98
f 104/176/99 118/177/99 119/178/14 105/179/14
f 120/180/100 111/181/101 114/182/102
f 121/183/103 122/184/104 123/185/105
f 108/167/94 124/186/106 125/187/107
f 126/188/33 127/189/33 119/178/33 118/177/33
f 120/180/100 154/190/108 103/191/109
f 176/192/110 154/190/108 120/180/100 100/193/111
f 101/194/112 175/195/106 176/192/110 100/193/111
f 113/172/39 112/171/39 129/196/39 130/197/39
f 121/198/14 130/197/14 129/196/99 122/199/99
f 108/167/94 147/200/113 175/195/106 101/194/112
f 106/201/114 150/202/115 147/200/113 108/167/94
f 109/203/24 127/189/24 126/188/90 110/204/90
f 102/205/99 128/206/99 118/177/99 104/176/99
f 122/199/99 129/196/99 117/207/99 115/208/99
f 110/204/90 126/188/90 107/160/90 106/163/90
f 103/209/90 116/210/90 112/171/90 111/170/90
f 107/160/33 126/188/33 118/177/33 128/206/33
f 112/171/39 116/210/39 117/207/39 129/196/39
f 108/167/94 101/194/112 124/186/106
f 96/153/85 95/8/7 131/75/49 132/211/116
f 102/212/117 104/164/91 97/166/93
f 108/167/94 110/169/96 106/201/114
f 120/180/100 103/191/109 111/181/101
f 122/184/104 115/175/98 99/174/97 123/185/105
f 120/180/100 133/213/118 134/214/110
f 120/180/100 134/214/110 100/193/111
f 133/213/118 125/187/107 124/186/106 134/214/110
f 100/193/111 135/215/119 136/216/120 101/194/112
f 132/211/116 123/217/24 99/158/89 96/153/85
f 139/218/121 140/219/53 141/220/52 142/221/122
f 134/214/110 142/221/122 135/215/119 100/193/111
f 124/186/106 139/218/121 142/221/122 134/214/110
f 101/194/112 136/216/120 139/218/121 124/186/106
f 141/222/24 140/223/24 143/224/24 144/225/24
f 136/216/120 143/226/54 140/219/53 139/218/121
f 135/215/119 144/227/55 143/226/54 136/216/120
f 142/221/122 141/220/52 144/227/55 135/215/119
f 147/228/113 148/229/123 149/230/124
f 128/206/33 171/231/62 166/161/62 107/160/33
f 150/232/115 151/233/125 148/229/123 147/228/113
f 152/234/126 153/235/127 154/236/108
f 155/237/128 153/235/127 148/229/123 151/233/125
f 149/230/124 148/229/123 153/235/127 152/234/126
f 159/238/129 164/239/130 102/212/117 97/166/93
f 160/240/131 161/241/132 145/89/59 146/88/58
f 162/242/111 163/243/112 149/244/124 152/245/126
f 154/190/108 162/242/111 152/245/126
f 164/239/130 159/238/129 156/246/70
f 128/206/99 102/205/99 164/247/14 171/231/14
f 150/162/24 166/161/24 167/248/24 151/249/24
f 154/236/108 153/235/127 155/237/128 165/250/133
f 169/251/14 170/252/14 171/231/14 164/247/14
f 145/89/59 161/241/132 169/253/134 157/102/69
f 156/103/70 157/102/69 169/253/134 164/254/130
f 151/249/24 167/248/24 173/255/24 155/256/24
f 161/257/14 174/258/14 170/252/14 169/251/14
f 168/259/78 173/255/79 174/258/79 172/260/78
f 174/258/79 173/255/79 167/248/80 170/252/80
f 171/231/62 170/252/80 167/248/80 166/161/62
f 155/256/24 173/255/24 168/259/24 165/261/24
f 160/262/14 172/260/14 174/258/14 161/257/14
f 115/208/99 117/207/99 172/260/14 160/262/14
f 165/261/24 168/259/24 116/210/90 103/209/90
f 116/210/39 168/259/78 172/260/78 117/207/39
f 147/200/113 149/244/124 163/243/112
f 147/200/113 163/243/112 175/195/106
f 154/190/108 165/263/133 103/191/109
f 115/175/98 160/240/131 146/88/58 94/137/3
f 154/190/108 176/192/110 162/242/111
f 162/242/111 177/264/119 178/265/120 163/243/112
f 156/105/70 159/266/86 158/106/71
f 179/267/121 180/268/53 181/269/52 182/270/122
f 176/192/110 182/270/122 177/264/119 162/242/111
f 175/195/106 179/267/121 182/270/122 176/192/110
f 163/243/112 178/265/120 179/267/121 175/195/106
f 181/271/24 180/272/24 183/273/24 184/274/24
f 178/265/120 183/275/54 180/268/53 179/267/121
f 177/264/119 184/276/55 183/275/54 178/265/120
f 182/270/122 181/269/52 184/276/55 177/264/119
f 98/156/88 138/151/84 137/150/83 158/157/71
