# Blender v2.81 (sub 16) OBJ File: 'All.blend'
# www.blender.org
mtllib LivingModuleBase.mtl
v 14.912156 -0.161029 -7.095197
v -26.785992 -6.044269 -13.142901
v 26.785992 -6.044264 14.142884
v -15.132111 -0.111739 7.857324
v -15.132109 -0.111741 -6.857339
v -26.786047 -6.044262 14.142884
v 14.826971 0.000001 7.812934
v 14.826973 -0.000001 -6.812948
v 27.181114 -5.955731 13.715631
v 15.132111 -0.111741 -6.857338
v 15.132109 -0.111739 7.857325
v 27.181114 -5.955735 -12.715643
v -14.912156 -0.161026 8.095183
v -27.181114 -5.955735 -12.715645
v 14.912154 -0.161027 8.095183
v -14.826971 -0.000001 -6.812949
v -14.912154 -0.161029 -7.095199
v -14.826973 0.000001 7.812933
v -27.181114 -5.955731 13.715629
v 26.786047 -6.044269 -13.142899
vt 0.161160 0.272208
vt 0.155605 0.720073
vt 0.013845 0.968710
vt 0.013841 0.030237
vt 0.160733 0.724450
vt 0.022735 0.976274
vt 0.162358 0.718235
vt 0.421005 0.725895
vt 0.427660 0.727793
vt 0.422522 0.732117
vt 0.167815 0.274106
vt 0.166298 0.267884
vt 0.426465 0.281766
vt 0.428090 0.275552
vt 0.433218 0.279929
vt 0.566086 0.023732
vt 0.574978 0.031297
vt 0.574978 0.969763
vt 0.566399 0.977501
vt 0.022420 0.022499
vn -0.0964 0.8271 -0.5537
vn 0.0964 0.8271 -0.5537
vn 0.1766 0.8560 -0.4859
vn -0.1766 0.8560 -0.4859
vn 0.3358 0.9226 -0.1900
vn 0.3358 0.9153 -0.2225
vn 0.1451 0.9629 -0.2276
vn 0.1451 0.9629 0.2276
vn 0.0964 0.8271 0.5537
vn 0.3358 0.9226 0.1900
vn -0.1451 0.9629 -0.2276
vn -0.3358 0.9226 -0.1900
vn -0.1451 0.9629 0.2276
vn -0.3358 0.9226 0.1900
vn -0.0964 0.8271 0.5537
vn -0.3358 0.9153 0.2225
vn -0.1766 0.8560 0.4859
vn 0.1766 0.8560 0.4859
vn 0.3358 0.9153 0.2225
vn -0.3358 0.9153 -0.2225
usemtl Base
s 1
f 17/1/1 1/2/2 20/3/3 2/4/4
f 1/2/2 10/5/5 12/6/6 20/3/3
f 1/2/2 8/7/7 10/5/5
f 7/8/8 15/9/9 11/10/10
f 16/11/11 17/1/1 5/12/12
f 18/13/13 4/14/14 13/15/15
f 13/15/15 4/14/14 19/16/16 6/17/17
f 8/7/7 7/8/8 11/10/10 10/5/5
f 15/9/9 13/15/15 6/17/17 3/18/18
f 10/5/5 11/10/10 9/19/19 12/6/6
f 18/13/13 16/11/11 5/12/12 4/14/14
f 5/12/12 17/1/1 2/4/4 14/20/20
f 4/14/14 5/12/12 14/20/20 19/16/16
f 18/13/13 7/8/8 8/7/7 16/11/11
f 11/10/10 15/9/9 3/18/18 9/19/19
f 7/8/8 18/13/13 13/15/15 15/9/9
f 16/11/11 8/7/7 1/2/2 17/1/1
