# Blender v2.81 (sub 16) OBJ File: 'All.blend'
# www.blender.org
mtllib MineBase.mtl
v 26.108885 -6.291484 23.739552
v 26.949099 -6.291484 23.001953
v 17.990814 -0.396345 17.195955
v 17.704006 0.000000 16.163868
v 18.755524 -0.341514 16.397495
v 26.949099 -6.291484 -19.241335
v 26.108885 -6.291484 -19.978933
v 17.704006 0.000000 -12.403253
v 17.990814 -0.396344 -13.435339
v 18.755524 -0.341515 -12.636879
v -27.288696 -6.291484 23.001953
v -26.448486 -6.291484 23.739552
v -18.043610 0.000000 16.163868
v -18.330414 -0.396344 17.195955
v -19.095123 -0.341515 16.397495
v -26.448486 -6.291484 -19.978933
v -27.288696 -6.291484 -19.241335
v -18.043610 0.000000 -12.403253
v -19.095123 -0.341514 -12.636879
v -18.330414 -0.396343 -13.435339
vt 0.022322 0.044273
vt 0.022322 0.957249
vt 0.168027 0.797248
vt 0.162480 0.210559
vt 0.792787 0.026595
vt 0.036252 0.028575
vt 0.176323 0.197480
vt 0.646560 0.189571
vt 0.642147 0.208039
vt 0.180893 0.215735
vt 0.186225 0.791962
vt 0.647479 0.784265
vt 0.806050 0.955728
vt 0.806050 0.042752
vt 0.660345 0.202753
vt 0.665892 0.789442
vt 0.181812 0.810429
vt 0.652049 0.802521
vt 0.035586 0.973405
vt 0.792121 0.971427
vn -0.2271 0.8468 0.4811
vn 0.2271 0.8468 0.4811
vn 0.1240 0.8686 0.4797
vn -0.1240 0.8686 0.4797
vn -0.4465 0.8658 -0.2260
vn -0.4465 0.8658 0.2260
vn -0.4089 0.8998 0.1519
vn -0.4089 0.8998 -0.1519
vn -0.1309 0.9788 -0.1573
vn -0.1309 0.9788 0.1573
vn 0.1309 0.9788 0.1573
vn 0.1309 0.9788 -0.1573
vn 0.2271 0.8468 -0.4811
vn -0.2271 0.8468 -0.4811
vn -0.1240 0.8686 -0.4797
vn 0.1240 0.8686 -0.4797
vn 0.4089 0.8998 0.1519
vn 0.4089 0.8998 -0.1519
vn 0.4465 0.8658 0.2260
vn 0.4465 0.8658 -0.2260
usemtl Base
s 1
f 12/1/1 1/2/2 3/3/3 14/4/4
f 17/5/5 11/6/6 15/7/7 19/8/8
f 18/9/9 13/10/10 4/11/11 8/12/12
f 7/13/13 16/14/14 20/15/15 9/16/16
f 3/3/3 5/17/17 4/11/11
f 8/12/12 10/18/18 9/16/16
f 13/10/10 15/7/7 14/4/4
f 18/9/9 20/15/15 19/8/8
f 1/2/2 2/19/19 5/17/17 3/3/3
f 4/11/11 5/17/17 10/18/18 8/12/12
f 9/16/16 10/18/18 6/20/20 7/13/13
f 8/12/12 9/16/16 20/15/15 18/9/9
f 19/8/8 20/15/15 16/14/14 17/5/5
f 18/9/9 19/8/8 15/7/7 13/10/10
f 14/4/4 15/7/7 11/6/6 12/1/1
f 13/10/10 14/4/4 3/3/3 4/11/11
f 2/19/19 6/20/20 10/18/18 5/17/17
