# Blender v2.81 (sub 16) OBJ File: 'All.blend'
# www.blender.org
mtllib PlantBase.mtl
v 21.426228 -4.639523 25.647575
v 21.064753 -4.639522 26.061981
v 17.213758 -0.224061 20.220781
v 16.690329 0.000000 20.050135
v 16.824980 -0.195442 20.600012
v -16.064760 -4.639523 26.061977
v -16.426233 -4.639523 25.647572
v -11.690329 0.000000 20.050133
v -12.213762 -0.224061 20.220779
v -11.824984 -0.195441 20.600010
v 21.064756 -4.639523 -22.702179
v 21.426231 -4.639523 -22.287773
v 16.690332 0.000000 -16.690331
v 17.213762 -0.224061 -16.860977
v 16.824984 -0.195441 -17.240208
v -16.426229 -4.639523 -22.287777
v -16.064756 -4.639522 -22.702183
v -12.213759 -0.224061 -16.860979
v -11.690326 0.000000 -16.690332
v -11.824981 -0.195442 -17.240210
vt 0.015542 0.990756
vt 0.135170 0.854454
vt 0.691178 0.847680
vt 0.806234 0.988815
vt 0.814544 0.979374
vt 0.699652 0.839672
vt 0.695388 0.153623
vt 0.814544 0.018923
vt 0.007622 0.020636
vt 0.122512 0.160335
vt 0.126770 0.846380
vt 0.007615 0.981077
vt 0.138546 0.842532
vt 0.134402 0.164145
vt 0.683612 0.157472
vt 0.687762 0.835862
vt 0.686988 0.145549
vt 0.130987 0.152328
vt 0.806617 0.009244
vt 0.015931 0.011195
vn -0.2461 0.8365 -0.4896
vn -0.1695 0.8809 -0.4418
vn 0.1695 0.8809 -0.4418
vn 0.2461 0.8365 -0.4896
vn 0.5293 0.8111 -0.2491
vn 0.5232 0.8412 -0.1367
vn 0.5232 0.8412 0.1367
vn 0.5293 0.8111 0.2491
vn -0.5293 0.8111 0.2491
vn -0.5232 0.8412 0.1367
vn -0.5232 0.8412 -0.1367
vn -0.5293 0.8111 -0.2491
vn -0.1714 0.9752 -0.1399
vn -0.1714 0.9752 0.1399
vn 0.1714 0.9752 0.1399
vn 0.1714 0.9752 -0.1399
vn 0.1695 0.8809 0.4418
vn -0.1695 0.8809 0.4418
vn 0.2461 0.8365 0.4896
vn -0.2461 0.8365 0.4896
usemtl Base
s 1
f 17/1/1 20/2/2 15/3/3 11/4/4
f 12/5/5 14/6/6 3/7/7 1/8/8
f 7/9/9 9/10/10 18/11/11 16/12/12
f 19/13/13 8/14/14 4/15/15 13/16/16
f 3/7/7 4/15/15 5/17/17
f 8/14/14 9/10/10 10/18/18
f 13/16/16 14/6/6 15/3/3
f 18/11/11 19/13/13 20/2/2
f 1/8/8 3/7/7 5/17/17 2/19/19
f 4/15/15 8/14/14 10/18/18 5/17/17
f 9/10/10 7/9/9 6/20/20 10/18/18
f 20/2/2 17/1/1 16/12/12 18/11/11
f 19/13/13 13/16/16 15/3/3 20/2/2
f 14/6/6 12/5/5 11/4/4 15/3/3
f 8/14/14 19/13/13 18/11/11 9/10/10
f 3/7/7 14/6/6 13/16/16 4/15/15
f 2/19/19 5/17/17 10/18/18 6/20/20
