# Blender v2.81 (sub 16) OBJ File: 'All.blend'
# www.blender.org
mtllib ResearchModuleBase.mtl
v -10.949623 -5.000000 16.904123
v -11.138639 -5.000000 16.679884
v -8.108178 -0.172333 11.944789
v -7.888284 -0.123142 12.120781
v -7.827513 0.000000 11.827513
v -11.138639 -5.000000 -17.679884
v -10.949623 -5.000000 -17.904123
v -8.108178 -0.172333 -12.944789
v -7.827513 0.000000 -12.827513
v -7.888284 -0.123142 -13.120781
v 11.138639 -5.000000 16.679884
v 10.949623 -5.000000 16.904123
v 8.108178 -0.172333 11.944789
v 7.827513 0.000000 11.827513
v 7.888284 -0.123142 12.120781
v 10.949623 -5.000000 -17.904123
v 11.138639 -5.000000 -17.679884
v 7.827513 0.000000 -12.827513
v 8.108178 -0.172333 -12.944789
v 7.888284 -0.123142 -13.120781
vt 0.022589 0.975878
vt 0.171253 0.798352
vt 0.577667 0.787042
vt 0.716861 0.977699
vt 0.723138 0.970418
vt 0.584805 0.781934
vt 0.575840 0.206800
vt 0.723138 0.031645
vt 0.016925 0.029583
vt 0.155259 0.218068
vt 0.164224 0.793203
vt 0.016926 0.968358
vt 0.717475 0.024124
vt 0.568811 0.201651
vt 0.162396 0.212960
vt 0.023202 0.022301
vt 0.165001 0.221754
vt 0.566336 0.210601
vt 0.575062 0.778248
vt 0.173727 0.789401
vn 0.2881 0.7566 0.5870
vn 0.2212 0.8334 0.5065
vn -0.2212 0.8334 0.5065
vn -0.2881 0.7566 0.5870
vn -0.6463 0.7011 0.3012
vn -0.6499 0.7413 0.1674
vn -0.6499 0.7413 -0.1674
vn -0.6463 0.7011 -0.3012
vn 0.6463 0.7011 -0.3012
vn 0.6499 0.7413 -0.1674
vn 0.6499 0.7413 0.1674
vn 0.6463 0.7011 0.3012
vn -0.2881 0.7566 -0.5870
vn -0.2212 0.8334 -0.5065
vn 0.2212 0.8334 -0.5065
vn 0.2881 0.7566 -0.5870
vn 0.2345 0.9591 -0.1588
vn -0.2345 0.9591 -0.1588
vn -0.2345 0.9591 0.1588
vn 0.2345 0.9591 0.1588
usemtl Base
s 1
f 12/1/1 15/2/2 4/3/3 1/4/4
f 2/5/5 3/6/6 8/7/7 6/8/8
f 17/9/9 19/10/10 13/11/11 11/12/12
f 7/13/13 10/14/14 20/15/15 16/16/16
f 18/17/17 9/18/18 5/19/19 14/20/20
f 3/6/6 4/3/3 5/19/19
f 8/7/7 9/18/18 10/14/14
f 13/11/11 14/20/20 15/2/2
f 18/17/17 19/10/10 20/15/15
f 1/4/4 4/3/3 3/6/6 2/5/5
f 10/14/14 7/13/13 6/8/8 8/7/7
f 9/18/18 18/17/17 20/15/15 10/14/14
f 19/10/10 17/9/9 16/16/16 20/15/15
f 15/2/2 12/1/1 11/12/12 13/11/11
f 14/20/20 5/19/19 4/3/3 15/2/2
f 5/19/19 9/18/18 8/7/7 3/6/6
f 13/11/11 19/10/10 18/17/17 14/20/20
