# Blender v2.81 (sub 16) OBJ File: 'All.blend'
# www.blender.org
mtllib Screw_z.mtl
v -0.000000 0.391313 -0.151968
v -0.000000 0.391313 0.239347
v 0.251532 0.299763 -0.151968
v 0.251532 0.299763 0.239347
v 0.385370 0.067950 -0.151968
v 0.385370 0.067950 0.239347
v 0.338888 -0.195659 -0.151968
v 0.338888 -0.195659 0.239347
v 0.524002 0.457074 0.239347
v 0.524002 0.457073 -0.151968
v 0.657840 0.225260 -0.151968
v 0.657840 0.225260 0.239347
v 1.221328 0.942065 0.279007
v 1.221328 0.942064 -0.221280
v 1.973905 -0.033811 0.069340
v 2.282691 -0.033811 0.279007
v 10.579149 6.344810 0.278999
v 10.579149 6.344809 -0.221283
v 10.664782 6.124433 0.032700
v 10.750257 6.048442 0.278998
v -0.000000 -0.000000 0.554660
vt 0.442502 0.391906
vt 0.464272 0.386971
vt 0.467648 0.401863
vt 0.445878 0.406798
vt 0.916700 0.004954
vt 0.931969 0.004831
vt 0.932114 0.022778
vt 0.916844 0.022901
vt 0.472246 0.434425
vt 0.478191 0.412909
vt 0.492909 0.416975
vt 0.486964 0.438492
vt 0.851231 0.698105
vt 0.835961 0.698108
vt 0.776796 0.625207
vt 0.855292 0.649768
vt 0.851234 0.716052
vt 0.835965 0.716055
vt 0.408255 0.312373
vt 0.430578 0.312373
vt 0.430578 0.330320
vt 0.408255 0.330320
vt 0.967402 0.004831
vt 0.989415 0.008532
vt 0.986439 0.026231
vt 0.964426 0.022530
vt 0.835467 0.033377
vt 0.854988 0.033367
vt 0.432840 0.378774
vt 0.404301 0.378774
vt 0.961303 0.099594
vt 0.946236 0.114638
vt 0.936575 0.071187
vt 0.864954 0.080532
vt 0.855292 0.004831
vt 0.841652 0.019175
vt 0.432840 0.995169
vt 0.404301 0.995169
vt 0.989415 0.706554
vt 0.974073 0.708706
vt 0.936575 0.687582
vt 0.916848 0.685928
vt 0.492909 0.388308
vn 0.3420 0.9397 0.0000
vn 0.3166 0.8699 0.3782
vn 0.1424 0.7451 0.6515
vn -0.0763 0.8723 -0.4831
vn 0.7172 -0.5022 -0.4831
vn -0.3649 0.5650 -0.7401
vn 0.1522 -0.6397 -0.7534
vn 0.7165 -0.2492 0.6515
vn 0.9117 -0.1608 0.3782
vn 0.9848 -0.1736 -0.0000
vn -0.3893 0.5832 0.7130
vn 0.0856 -0.5997 0.7957
vn 0.3752 -0.8161 0.4395
vn -0.3947 0.5896 0.7047
vn 0.8787 -0.2621 0.3990
vn 0.2468 0.7826 0.5715
vn -0.3304 0.5126 -0.7925
vn 0.0648 -0.8425 -0.5348
vn 0.0887 0.6558 -0.7497
vn 0.7974 -0.1118 -0.5930
vn 0.5078 0.2932 0.8101
usemtl Screw
s 1
f 1/1/1 2/2/2 4/3/3 3/4/4
f 5/5/5 3/6/4 10/7/6 11/8/7
f 5/9/5 6/10/8 8/11/9 7/12/10
f 9/13/11 12/14/12 16/15/13 13/16/14
f 4/17/3 6/18/8 12/14/12 9/13/11
f 3/19/4 4/20/3 9/21/11 10/22/6
f 6/23/8 5/24/5 11/25/7 12/26/12
f 13/16/14 16/15/13 20/27/15 17/28/16
f 10/22/6 9/21/11 13/29/14 14/30/17
f 12/26/12 11/25/7 15/31/18 16/32/13
f 11/8/7 10/7/6 14/33/17 15/34/18
f 18/35/19 17/28/16 20/27/15 19/36/20
f 14/30/17 13/29/14 17/37/16 18/38/19
f 16/32/13 15/31/18 19/39/20 20/40/15
f 15/34/18 14/33/17 18/41/19 19/42/20
f 2/2/2 21/43/21 4/3/3
f 4/3/3 21/43/21 6/10/8
f 6/10/8 21/43/21 8/11/9
v 0.338887 -0.195657 -0.151968
v 0.338887 -0.195657 0.239347
v 0.133836 -0.367715 -0.151968
v 0.133836 -0.367715 0.239347
v -0.133839 -0.367715 -0.151968
v -0.133839 -0.367715 0.239347
v -0.338890 -0.195657 -0.151968
v -0.338890 -0.195657 0.239347
v 0.133836 -0.682336 0.239347
v 0.133836 -0.682336 -0.151968
v -0.133839 -0.682336 -0.151968
v -0.133839 -0.682336 0.239347
v 0.205188 -1.528733 0.279007
v 0.205188 -1.528733 -0.221280
v -1.016234 -1.692546 0.069340
v -1.170627 -1.959963 0.279007
v 0.205191 -12.334217 0.278999
v 0.205190 -12.334217 -0.221283
v -0.028477 -12.298188 0.032700
v -0.137025 -12.334217 0.278998
v -0.000000 0.000000 0.554660
vt 0.442502 0.391906
vt 0.464272 0.386971
vt 0.467648 0.401863
vt 0.445878 0.406798
vt 0.916700 0.004954
vt 0.931969 0.004831
vt 0.932114 0.022778
vt 0.916844 0.022901
vt 0.472246 0.434425
vt 0.478191 0.412909
vt 0.492909 0.416975
vt 0.486964 0.438492
vt 0.851231 0.698105
vt 0.835961 0.698108
vt 0.776796 0.625207
vt 0.855292 0.649768
vt 0.851234 0.716052
vt 0.835965 0.716055
vt 0.408255 0.312373
vt 0.430578 0.312373
vt 0.430578 0.330320
vt 0.408255 0.330320
vt 0.967402 0.004831
vt 0.989415 0.008532
vt 0.986439 0.026231
vt 0.964426 0.022530
vt 0.835467 0.033377
vt 0.854988 0.033367
vt 0.432840 0.378774
vt 0.404301 0.378774
vt 0.961303 0.099594
vt 0.946236 0.114638
vt 0.936575 0.071187
vt 0.864954 0.080532
vt 0.855292 0.004831
vt 0.841652 0.019175
vt 0.432840 0.995169
vt 0.404301 0.995169
vt 0.989415 0.706554
vt 0.974073 0.708706
vt 0.936575 0.687582
vt 0.916848 0.685928
vt 0.492909 0.388308
vn 0.6428 -0.7660 0.0000
vn 0.5950 -0.7091 0.3782
vn 0.5741 -0.4959 0.6515
vn 0.7936 -0.3700 -0.4831
vn -0.7936 -0.3700 -0.4831
vn 0.6717 0.0335 -0.7401
vn -0.6302 0.1880 -0.7534
vn -0.5741 -0.4959 0.6515
vn -0.5950 -0.7091 0.3782
vn -0.6428 -0.7660 0.0000
vn 0.6997 0.0455 0.7130
vn -0.5621 0.2257 0.7957
vn -0.8944 0.0831 0.4395
vn 0.7080 0.0470 0.7047
vn -0.6663 -0.6299 0.3990
vn 0.5544 -0.6050 0.5715
vn 0.6091 0.0298 -0.7925
vn -0.7620 0.3651 -0.5348
vn 0.5236 -0.4047 -0.7497
vn -0.4955 -0.6347 -0.5930
vn 0.0000 -0.5863 0.8101
usemtl Screw
s 1
f 22/44/22 23/45/23 25/46/24 24/47/25
f 26/48/26 24/49/25 31/50/27 32/51/28
f 26/52/26 27/53/29 29/54/30 28/55/31
f 30/56/32 33/57/33 37/58/34 34/59/35
f 25/60/24 27/61/29 33/57/33 30/56/32
f 24/62/25 25/63/24 30/64/32 31/65/27
f 27/66/29 26/67/26 32/68/28 33/69/33
f 34/59/35 37/58/34 41/70/36 38/71/37
f 31/65/27 30/64/32 34/72/35 35/73/38
f 33/69/33 32/68/28 36/74/39 37/75/34
f 32/51/28 31/50/27 35/76/38 36/77/39
f 39/78/40 38/71/37 41/70/36 40/79/41
f 35/73/38 34/72/35 38/80/37 39/81/40
f 37/75/34 36/74/39 40/82/41 41/83/36
f 36/77/39 35/76/38 39/84/40 40/85/41
f 23/45/23 42/86/42 25/46/24
f 25/46/24 42/86/42 27/53/29
f 27/53/29 42/86/42 29/54/30
v -0.338887 -0.195657 -0.151968
v -0.338887 -0.195657 0.239347
v -0.385368 0.067952 -0.151968
v -0.385368 0.067952 0.239347
v -0.251531 0.299765 -0.151968
v -0.251531 0.299765 0.239347
v 0.000001 0.391315 -0.151968
v 0.000001 0.391315 0.239347
v -0.657838 0.225262 0.239347
v -0.657838 0.225262 -0.151968
v -0.524001 0.457076 -0.151968
v -0.524001 0.457076 0.239347
v -1.426516 0.586669 0.279007
v -1.426516 0.586669 -0.221280
v -0.957671 1.726357 0.069340
v -1.112064 1.993775 0.279007
v -10.784340 5.989408 0.278999
v -10.784340 5.989409 -0.221283
v -10.636305 6.173757 0.032700
v -10.613233 6.285776 0.278998
v 0.000000 0.000000 0.554660
vt 0.442502 0.391906
vt 0.464272 0.386971
vt 0.467648 0.401863
vt 0.445878 0.406798
vt 0.916700 0.004954
vt 0.931969 0.004831
vt 0.932114 0.022778
vt 0.916844 0.022901
vt 0.472246 0.434425
vt 0.478191 0.412909
vt 0.492909 0.416975
vt 0.486964 0.438492
vt 0.851231 0.698105
vt 0.835961 0.698108
vt 0.776796 0.625207
vt 0.855292 0.649768
vt 0.851234 0.716052
vt 0.835965 0.716055
vt 0.408255 0.312373
vt 0.430578 0.312373
vt 0.430578 0.330320
vt 0.408255 0.330320
vt 0.967402 0.004831
vt 0.989415 0.008532
vt 0.986439 0.026231
vt 0.964426 0.022530
vt 0.835467 0.033377
vt 0.854988 0.033367
vt 0.432840 0.378774
vt 0.404301 0.378774
vt 0.961303 0.099594
vt 0.946236 0.114638
vt 0.936575 0.071187
vt 0.864954 0.080532
vt 0.855292 0.004831
vt 0.841652 0.019175
vt 0.432840 0.995169
vt 0.404301 0.995169
vt 0.989415 0.706554
vt 0.974073 0.708706
vt 0.936575 0.687582
vt 0.916848 0.685928
vt 0.492909 0.388308
vn -0.9848 -0.1736 0.0000
vn -0.9117 -0.1608 0.3782
vn -0.7165 -0.2492 0.6515
vn -0.7172 -0.5022 -0.4831
vn 0.0763 0.8723 -0.4831
vn -0.3069 -0.5985 -0.7401
vn 0.4779 0.4517 -0.7534
vn -0.1424 0.7451 0.6515
vn -0.3166 0.8699 0.3782
vn -0.3420 0.9397 0.0000
vn -0.3104 -0.6288 0.7130
vn 0.4765 0.3740 0.7957
vn 0.5192 0.7330 0.4395
vn -0.3133 -0.6366 0.7047
vn -0.2124 0.8920 0.3990
vn -0.8012 -0.1776 0.5715
vn -0.2788 -0.5424 -0.7925
vn 0.6972 0.4774 -0.5348
vn -0.6123 -0.2511 -0.7497
vn -0.3019 0.7464 -0.5930
vn -0.5078 0.2932 0.8101
usemtl Screw
s 1
f 43/87/43 44/88/44 46/89/45 45/90/46
f 47/91/47 45/92/46 52/93/48 53/94/49
f 47/95/47 48/96/50 50/97/51 49/98/52
f 51/99/53 54/100/54 58/101/55 55/102/56
f 46/103/45 48/104/50 54/100/54 51/99/53
f 45/105/46 46/106/45 51/107/53 52/108/48
f 48/109/50 47/110/47 53/111/49 54/112/54
f 55/102/56 58/101/55 62/113/57 59/114/58
f 52/108/48 51/107/53 55/115/56 56/116/59
f 54/112/54 53/111/49 57/117/60 58/118/55
f 53/94/49 52/93/48 56/119/59 57/120/60
f 60/121/61 59/114/58 62/113/57 61/122/62
f 56/116/59 55/115/56 59/123/58 60/124/61
f 58/118/55 57/117/60 61/125/62 62/126/57
f 57/120/60 56/119/59 60/127/61 61/128/62
f 44/88/44 63/129/63 46/89/45
f 46/89/45 63/129/63 48/96/50
f 48/96/50 63/129/63 50/97/51
