# Blender v2.81 (sub 16) OBJ File: 'All.blend'
# www.blender.org
mtllib Storage.mtl
v 7.269755 0.000000 -14.537750
v 9.151913 9.302743 14.493994
v 7.854156 7.314644 16.000000
v 9.385155 7.314644 -13.771631
v 9.151913 0.000000 14.493994
v 7.269755 9.302743 -14.537750
v -9.385155 7.314644 14.771632
v -9.385155 7.314644 -13.771631
v 2.985878 11.000000 1.596670
v 2.985878 11.000000 11.930002
v -2.985878 11.000000 1.596670
v -2.985878 11.000000 11.930002
v 1.794150 12.264084 2.355108
v 1.794150 12.264084 11.930002
v -1.794150 12.264084 2.355108
v -1.794150 12.264084 11.930002
v -9.385155 9.771632 14.771632
v -7.857490 9.455393 16.000000
v -7.454610 11.000000 14.772156
v -7.455029 9.771632 -15.000000
v -9.385155 9.771632 -13.771631
v -7.454626 11.000000 -13.771631
v 9.385155 9.771632 14.771632
v 7.454610 11.000000 14.772156
v 7.857490 9.455393 16.000000
v 7.454626 11.000000 -13.771631
v 9.385155 9.771632 -13.771631
v 7.455029 9.771632 -15.000000
v 4.004519 8.871166 16.000000
v 7.141313 7.558057 16.000000
v -7.854156 7.314644 16.000000
v -7.141313 7.558057 16.000000
v -4.004519 8.871166 16.000000
v 7.455029 7.314644 -15.000000
v 6.963836 9.302743 15.594189
v -2.514568 11.093115 11.510574
v 2.514568 11.093115 11.510574
v -6.963836 9.302743 15.594189
v 9.385155 7.314644 14.771632
v -7.455029 7.314644 -15.000000
v -9.151913 0.000000 -13.339909
v -9.151913 9.302743 -13.339909
v -7.647119 0.000000 15.594188
v -7.658964 9.302743 15.594189
v 7.658964 9.302743 15.594189
v 7.647119 0.000000 15.594188
v 9.151913 0.000000 -13.339909
v -9.151913 0.000000 14.493994
v -7.269755 0.000000 -14.537750
v -7.269755 9.302743 -14.537750
v 9.151913 9.302743 -13.339909
v -9.151913 9.302743 14.493994
v -1.510950 12.157668 11.510574
v 9.385155 7.314644 12.608920
v -9.385155 7.314644 12.608920
v -9.385155 7.314644 -11.316033
v 9.385155 7.314644 -11.316033
v 1.510950 12.157668 11.510574
v 9.385155 8.493100 11.383844
v -9.385155 8.493100 11.383844
v -1.334840 8.871166 16.000000
v 1.334840 8.871166 16.000000
v -9.385155 8.493100 -10.200550
v 9.385155 8.493100 -10.200550
v 0.755839 8.323607 16.000000
v -0.755839 8.323607 16.000000
v -6.963836 0.000000 15.043824
v -6.963836 9.302743 15.043825
v 6.963836 9.302743 15.043825
v 6.963836 0.000000 15.043824
v -7.651668 2.902550 15.594188
v -6.963836 2.902550 15.594188
v 6.963836 2.902550 15.594188
v 7.237695 0.000000 18.007982
v 7.651668 2.902550 15.594188
v 6.963836 0.000000 18.007982
v 6.963836 0.527797 18.007982
v 7.242001 0.527797 18.007982
v -6.963836 0.000000 18.007982
v -7.237695 0.000000 18.007982
v -7.242001 0.527797 18.007982
v -6.963836 0.527797 18.007982
vt 0.558355 0.764314
vt 0.548178 0.706296
vt 0.602621 0.698193
vt 0.608018 0.752765
vt 0.620955 0.823916
vt 0.609510 0.863984
vt 0.604711 0.820009
vt 0.014143 0.566524
vt 0.066563 0.612665
vt 0.014143 0.612665
vt 0.534713 0.056079
vt 0.482294 0.003689
vt 0.534713 0.003689
vt 0.744812 0.850827
vt 0.687805 0.851213
vt 0.939076 0.863298
vt 0.803193 0.850501
vt 0.860872 0.850749
vt 0.034135 0.980397
vt 0.030659 0.839429
vt 0.041075 0.850304
vt 0.044002 0.969021
vt 0.570411 0.880381
vt 0.614574 0.907680
vt 0.914058 0.749112
vt 0.961001 0.757543
vt 0.918605 0.784991
vt 0.976877 0.878863
vt 0.934636 0.904794
vt 0.604931 0.791314
vt 0.561072 0.826377
vt 0.927700 0.823840
vt 0.943666 0.820009
vt 0.919351 0.698193
vt 0.968293 0.704983
vt 0.986116 0.826319
vt 0.320851 0.401105
vt 0.322622 0.536544
vt 0.308307 0.536732
vt 0.306723 0.404927
vt 0.952692 0.684900
vt 0.754215 0.684900
vt 0.754215 0.637301
vt 0.952692 0.637301
vt 0.743702 0.051287
vt 0.545227 0.051287
vt 0.545227 0.003689
vt 0.743702 0.003689
vt 0.607153 0.684822
vt 0.545226 0.684900
vt 0.545226 0.645129
vt 0.816142 0.003767
vt 0.952691 0.003892
vt 0.952691 0.043459
vt 0.754216 0.043459
vt 0.243071 0.474839
vt 0.241488 0.343033
vt 0.227173 0.343221
vt 0.228943 0.478661
vt 0.270216 0.940113
vt 0.272888 0.869837
vt 0.302353 0.835721
vt 0.302353 0.972633
vt 0.534713 0.612666
vt 0.482292 0.612666
vt 0.534713 0.566524
vt 0.039285 0.540387
vt 0.014143 0.003689
vt 0.066563 0.003689
vt 0.014143 0.056079
vt 0.509571 0.079878
vt 0.509570 0.540386
vt 0.338132 0.331575
vt 0.433474 0.003689
vt 0.433473 0.612677
vt 0.338132 0.552039
vt 0.039285 0.079878
vt 0.115382 0.003689
vt 0.210724 0.331575
vt 0.210723 0.552039
vt 0.115382 0.612677
vt 0.077429 0.867756
vt 0.073141 0.827340
vt 0.076015 0.989272
vt 0.078855 0.949804
vt 0.743702 0.645129
vt 0.068548 0.944710
vt 0.066789 0.873376
vt 0.216978 0.343286
vt 0.216978 0.540280
vt 0.324346 0.623190
vt 0.324346 0.821666
vt 0.014143 0.821666
vt 0.014143 0.623190
vt 0.064478 0.978650
vt 0.757406 0.838782
vt 0.790464 0.838597
vt 0.533335 0.920340
vt 0.334859 0.920340
vt 0.334859 0.623190
vt 0.533335 0.623190
vt 0.061667 0.838531
vt 0.286076 0.351717
vt 0.289500 0.349563
vt 0.754216 0.003689
vt 0.743702 0.684696
vt 0.332816 0.339486
vt 0.332816 0.536479
vt 0.268491 0.535501
vt 0.263718 0.528049
vt 0.260295 0.530203
vt 0.263625 0.537935
vt 0.286169 0.341831
vt 0.281303 0.344265
vt 0.295038 0.501349
vt 0.254756 0.378417
vn 0.8106 0.4141 -0.4141
vn 0.8766 0.0000 -0.4812
vn 0.2796 0.0000 -0.9601
vn 0.2510 0.3538 -0.9010
vn 0.0000 0.0000 1.0000
vn -0.2968 0.3056 0.9047
vn -0.3701 -0.0003 0.9290
vn 1.0000 0.0000 0.0000
vn 0.8165 0.4292 0.3861
vn 0.9017 -0.0003 0.4323
vn -1.0000 0.0000 0.0000
vn -0.8106 0.4141 -0.4141
vn -0.8766 0.0000 -0.4812
vn 0.2968 0.3056 0.9047
vn -0.3795 0.8210 0.4266
vn 0.3795 0.8210 0.4266
vn -0.4365 0.3460 0.8305
vn 0.4365 0.3460 0.8305
vn -0.8165 0.4292 0.3861
vn -0.2371 0.8896 0.3903
vn -0.2510 0.3538 -0.9010
vn -0.2509 0.9010 -0.3538
vn 0.2371 0.8896 0.3903
vn 0.2509 0.9010 -0.3538
vn -0.9017 -0.0003 0.4323
vn 0.3701 -0.0003 0.9290
vn -0.2796 0.0000 -0.9601
vn 0.0000 0.3864 0.9223
vn -0.3118 -0.0001 0.9502
vn -0.4434 0.1725 0.8796
vn 0.4434 0.1725 0.8796
vn 0.5902 -0.0009 0.8073
vn 0.8919 -0.0004 0.4523
vn -0.8922 -0.0002 0.4516
vn -0.8919 -0.0004 0.4523
vn 0.3118 -0.0001 0.9502
vn -0.7071 -0.0000 0.7071
vn -0.8053 0.2291 0.5469
vn -0.3039 0.8615 -0.4067
vn 0.3039 0.8615 -0.4067
vn 0.4982 0.7404 -0.4512
vn -0.4982 0.7404 -0.4512
vn 0.0000 1.0000 -0.0000
vn 0.0379 0.4696 0.8821
vn -0.0379 0.4696 0.8821
vn 0.8922 -0.0002 0.4516
vn 0.2521 -0.8837 0.3944
vn -0.2521 -0.8837 0.3944
vn -0.5666 0.2943 0.7697
vn 0.6296 0.3002 0.7166
vn -0.5902 -0.0009 0.8073
vn 0.6438 -0.0017 0.7652
vn 0.5666 0.2943 0.7697
vn -0.6296 0.3002 0.7166
vn 0.7071 0.0000 0.7071
vn -0.6438 -0.0017 0.7652
vn 0.9861 -0.0025 0.1661
vn -0.9861 -0.0025 0.1661
usemtl Storage
s 1
f 27/1/1 4/2/2 34/3/3 28/4/4
f 32/5/5 18/6/6 31/7/7
f 54/8/8 23/9/9 39/10/10
f 56/11/11 21/12/12 8/13/13
f 61/14/5 18/6/6 33/15/5
f 25/16/14 18/6/6 61/14/5 62/17/5
f 29/18/5 25/16/14 62/17/5
f 12/19/15 10/20/16 37/21/17 36/22/18
f 17/23/19 18/6/6 19/24/20
f 20/25/21 21/26/12 22/27/22
f 23/28/9 24/29/23 25/16/14
f 26/30/24 27/1/1 28/4/4
f 31/7/7 18/6/6 17/23/19 7/31/25
f 29/18/5 30/32/5 25/16/14
f 32/5/5 33/15/5 18/6/6
f 3/33/26 25/16/14 30/32/5
f 20/25/21 40/34/27 8/35/13 21/26/12
f 25/16/14 3/33/26 39/36/10 23/28/9
f 72/37/28 38/38/5 44/39/29 71/40/30
f 50/41/27 49/42/27 41/43/13 42/44/13
f 51/45/2 47/46/2 1/47/3 6/48/3
f 75/49/31 46/50/32 5/51/33
f 71/52/30 44/53/29 52/54/34 48/55/35
f 75/56/31 45/57/36 35/58/37 73/59/38
f 15/60/39 13/61/40 9/62/41 11/63/42
f 22/27/22 26/30/24 28/4/4 20/25/21
f 7/64/25 17/65/19 55/66/11
f 59/67/8 23/9/9 54/8/8
f 4/68/2 27/69/1 57/70/8
f 63/71/11 21/12/12 56/11/11
f 55/66/11 17/65/19 60/72/11
f 11/73/43 22/74/22 19/75/20 12/76/43
f 64/77/8 27/69/1 23/9/9 59/67/8
f 26/78/24 9/79/43 10/80/43 24/81/23
f 13/61/40 14/82/44 10/83/16 9/62/41
f 11/63/42 12/84/15 16/85/45 15/60/39
f 26/78/24 24/81/23 23/9/9 27/69/1
f 47/46/2 51/45/2 2/86/46 5/51/33
f 57/70/8 27/69/1 64/77/8
f 60/72/11 17/65/19 21/12/12 63/71/11
f 19/75/20 22/74/22 21/12/12 17/65/19
f 48/55/35 52/54/34 42/44/13 41/43/13
f 14/82/44 16/85/45 53/87/47 58/88/48
f 26/78/24 22/74/22 11/73/43 9/79/43
f 13/61/40 15/60/39 16/85/45 14/82/44
f 73/59/38 35/58/37 69/89/11 70/90/11
f 40/34/27 20/25/21 28/4/4 34/3/3
f 49/91/27 50/92/27 6/93/3 1/94/3
f 24/29/23 19/24/20 18/6/6 25/16/14
f 10/80/43 12/76/43 19/75/20 24/81/23
f 16/85/45 12/84/15 36/95/18 53/87/47
f 66/96/5 65/97/5 62/17/5 61/14/5
f 70/98/5 69/99/5 68/100/5 67/101/5
f 36/22/18 37/21/17 58/88/5 53/87/5
f 10/83/16 14/82/44 58/88/48 37/102/17
f 72/37/28 71/40/30 81/103/49 82/104/50
f 43/105/51 71/52/30 48/55/35
f 45/106/36 75/49/31 5/51/33 2/86/46
f 38/38/8 72/37/8 67/107/8 68/108/8
f 74/109/52 78/110/53 77/111/54 76/112/37
f 79/113/55 82/104/50 81/103/49 80/114/56
f 75/56/31 73/59/38 77/111/54 78/110/53
f 46/115/57 75/56/31 78/110/53 74/109/52
f 67/107/8 72/37/8 82/104/50 79/113/55
f 71/40/30 43/116/58 80/114/56 81/103/49
f 73/59/38 70/90/11 76/112/37 77/111/54
