# Blender v2.81 (sub 16) OBJ File: 'All.blend'
# www.blender.org
mtllib WaterTank.mtl
v -4.829630 0.000000 -1.015410
v -4.829630 7.000000 -1.015410
v -3.535536 0.000000 -3.256849
v -3.535536 7.000000 -3.256849
v -1.294096 0.000000 -4.550945
v -1.294096 7.000000 -4.550945
v 1.294093 0.000000 -4.550944
v 1.294093 7.000000 -4.550944
v 3.535532 0.000000 -3.256850
v 3.535532 7.000000 -3.256850
v 4.829626 7.000000 -1.015411
v 4.829626 0.000000 -1.015411
v 4.829626 0.000000 1.572779
v 4.829626 7.000000 1.572779
v 3.535532 7.000000 3.814218
v 3.535532 0.000000 3.814218
v 1.294096 7.000000 5.108313
v 1.294096 0.000000 5.108313
v -1.294096 0.000000 5.108315
v -1.294096 7.000000 5.108315
v -3.535532 0.000000 3.814221
v -3.535532 7.000000 3.814221
v -4.829630 0.000000 1.572784
v -4.829630 7.000000 1.572784
v -3.828779 7.260149 -0.747233
v -2.802862 7.260149 -2.524174
v 2.802859 7.260149 -2.524175
v 3.828775 7.260149 -0.747234
v 3.828775 7.260149 1.304601
v 2.802858 7.260149 3.081543
v 1.025915 7.260149 4.107460
v -1.025919 7.260149 4.107462
v -2.802859 7.260149 3.081546
v -3.828779 7.260149 1.304605
v -2.257032 8.782729 -0.326085
v -1.775557 8.569181 0.883456
v -2.114156 7.951890 -1.835470
v 1.775553 8.569181 0.883454
v -2.257032 8.782729 0.883456
v -0.773836 7.951890 -2.609304
v 1.775549 8.569181 -0.326085
v 0.773832 7.951890 -2.609304
v 2.887987 7.951890 1.052519
v 2.114153 7.951890 -1.835471
v -1.871817 8.040509 0.916244
v 1.871813 8.040509 0.916241
v -2.887991 7.951890 -0.495149
v 1.871813 8.040509 -0.358873
v 2.887987 7.951890 -0.495150
v 2.114153 7.951890 2.392838
v 2.257029 8.782729 0.883454
v 0.773832 7.951890 3.166673
v 2.257029 8.782729 -0.326085
v -0.773836 7.951890 3.166674
v -1.775557 8.569181 -0.326085
v -2.114157 7.951890 2.392841
v -1.871817 8.040509 -0.358873
v -2.887991 7.951890 1.052521
v -0.692548 7.924345 -3.809651
v -0.873582 7.924345 -4.550945
v 0.873579 7.924345 -4.550944
v 0.692545 7.924345 -3.809651
vt 0.568246 0.646860
vt 0.423489 0.646860
vt 0.423489 0.593338
vt 0.568246 0.593337
vt 0.423489 0.539815
vt 0.568246 0.539815
vt 0.423489 0.486292
vt 0.568246 0.486292
vt 0.423489 0.432769
vt 0.568246 0.432769
vt 0.423489 0.379247
vt 0.568246 0.379247
vt 0.423489 0.325724
vt 0.568246 0.325724
vt 0.423489 0.272201
vt 0.568246 0.272201
vt 0.423489 0.218679
vt 0.568246 0.218679
vt 0.423489 0.165156
vt 0.568246 0.165156
vt 0.423489 0.111633
vt 0.568246 0.111633
vt 0.423489 0.058111
vt 0.568246 0.058111
vt 0.423489 0.004588
vt 0.568246 0.004588
vt 0.752469 0.664898
vt 0.827657 0.702069
vt 0.805014 0.728258
vt 0.745408 0.698790
vt 0.597446 0.943688
vt 0.556684 0.870385
vt 0.590196 0.861694
vt 0.622510 0.919807
vt 0.875304 0.771094
vt 0.844491 0.801177
vt 0.556684 0.786511
vt 0.590196 0.795202
vt 0.875304 0.885799
vt 0.844491 0.855717
vt 0.869118 0.853477
vt 0.597445 0.713207
vt 0.622510 0.737089
vt 0.827657 0.954825
vt 0.805015 0.928636
vt 0.668693 0.668951
vt 0.678993 0.702004
vt 0.752470 0.991996
vt 0.668694 0.987944
vt 0.678994 0.954891
vt 0.745409 0.958104
vt 0.698441 0.756679
vt 0.698441 0.903471
vt 0.691519 0.887489
vt 0.691488 0.772624
vt 0.880808 0.488751
vt 0.898705 0.541379
vt 0.867402 0.544034
vt 0.854746 0.506715
vt 0.693564 0.499431
vt 0.730878 0.458283
vt 0.748403 0.484687
vt 0.721611 0.513849
vt 0.729579 0.758484
vt 0.758362 0.737931
vt 0.753736 0.771084
vt 0.736778 0.774268
vt 0.857198 0.632781
vt 0.795101 0.656053
vt 0.793958 0.625274
vt 0.832196 0.613618
vt 0.761903 0.924918
vt 0.755976 0.891685
vt 0.838829 0.451865
vt 0.825083 0.480512
vt 0.669156 0.736527
vt 0.674441 0.769758
vt 0.681251 0.554327
vt 0.713416 0.552574
vt 0.732093 0.905257
vt 0.738762 0.889119
vt 0.881519 0.606609
vt 0.860047 0.583330
vt 0.669128 0.923550
vt 0.674391 0.890378
vt 0.783960 0.440742
vt 0.786206 0.472456
vt 0.743642 0.569215
vt 0.729668 0.568363
vt 0.729668 0.536909
vt 0.743642 0.536057
vt 0.699273 0.608107
vt 0.725708 0.590181
vt 0.840993 0.569215
vt 0.840993 0.536057
vt 0.606287 0.434157
vt 0.646533 0.434157
vt 0.642137 0.461287
vt 0.610684 0.461287
vt 0.741348 0.644946
vt 0.755231 0.616669
vt 0.828100 0.805077
vt 0.829049 0.855179
vt 0.802227 0.762161
vt 0.646533 0.605802
vt 0.606287 0.605802
vt 0.610684 0.578672
vt 0.642137 0.578672
vt 0.600691 0.804971
vt 0.600683 0.855084
vt 0.804819 0.899044
vt 0.625753 0.761577
vt 0.625733 0.898487
vt 0.854967 0.568363
vt 0.854967 0.536909
vt 0.898705 0.616204
vt 0.868027 0.649218
vt 0.869118 0.803417
vt 0.757896 0.577742
vt 0.825200 0.577910
vt 0.814205 0.601920
vt 0.768771 0.601807
vn -0.9659 0.0000 -0.2588
vn -0.7071 0.0000 -0.7071
vn -0.2588 0.0000 -0.9659
vn 0.2588 0.0000 -0.9659
vn 0.7071 0.0000 -0.7071
vn 0.9659 0.0000 -0.2588
vn 0.9659 0.0000 0.2588
vn 0.7071 0.0000 0.7071
vn 0.2588 0.0000 0.9659
vn -0.2588 0.0000 0.9659
vn -0.7071 0.0000 0.7071
vn -0.9659 0.0000 0.2588
vn 0.2352 0.9699 -0.0630
vn 0.2880 0.9239 -0.2518
vn 0.2887 0.9234 -0.2529
vn -0.1722 0.9699 0.1722
vn -0.0630 0.9699 0.2352
vn 0.5405 0.8076 -0.2360
vn 0.6344 0.7578 -0.1524
vn 0.0630 0.9699 0.2352
vn -0.5405 0.8076 -0.2360
vn -0.6344 0.7578 -0.1524
vn -0.8885 0.4042 0.2170
vn 0.1722 0.9699 0.1722
vn -0.2880 0.9239 -0.2518
vn -0.2887 0.9234 -0.2529
vn 0.2352 0.9699 0.0630
vn -0.2352 0.9699 -0.0630
vn -0.2352 0.9699 0.0630
vn 0.0797 0.0769 -0.9938
vn -0.0797 0.0769 -0.9938
vn -0.0392 0.0378 -0.9985
vn 0.0392 0.0378 -0.9985
vn 0.5593 0.8153 -0.1499
vn 0.4251 0.8629 -0.2735
vn 0.4202 0.8656 -0.2722
vn 0.6351 0.7648 -0.1084
vn -0.1499 0.8153 0.5593
vn 0.1499 0.8153 0.5593
vn 0.0797 0.0769 0.9938
vn 0.0868 0.2265 0.9701
vn 0.0413 0.6120 0.7898
vn 0.0392 0.0378 0.9985
vn -0.0727 0.9953 -0.0639
vn -0.4251 0.8629 -0.2735
vn -0.4202 0.8656 -0.2722
vn -0.1938 0.9684 -0.1568
vn -0.0868 0.2265 0.9701
vn -0.0413 0.6120 0.7898
vn 0.5593 0.8153 0.1499
vn 0.6351 0.7648 0.1084
vn 0.0868 0.2265 -0.9701
vn 0.0413 0.6120 -0.7898
vn -0.4094 0.8153 0.4094
vn -0.0797 0.0769 0.9938
vn -0.0392 0.0378 0.9985
vn 0.0727 0.9953 -0.0639
vn 0.1938 0.9684 -0.1568
vn -0.0868 0.2265 -0.9701
vn -0.0413 0.6120 -0.7898
vn 0.4094 0.8153 0.4094
vn 0.7524 0.6587 0.0000
vn 0.9838 -0.1791 0.0000
vn -0.5593 0.8153 0.1499
vn -0.6351 0.7648 0.1084
vn -0.7524 0.6587 0.0000
vn 0.4660 0.8848 0.0000
vn -0.5593 0.8153 -0.1499
vn -0.6351 0.7648 -0.1084
vn 0.0000 1.0000 -0.0000
vn -0.4660 0.8848 0.0000
vn -0.9838 -0.1791 0.0000
vn 0.8885 0.4042 0.2170
vn 0.0000 0.0000 -1.0000
usemtl WaterTank
s 1
f 1/1/1 2/2/1 4/3/2 3/4/2
f 3/4/2 4/3/2 6/5/3 5/6/3
f 5/6/3 6/5/3 8/7/4 7/8/4
f 7/8/4 8/7/4 10/9/5 9/10/5
f 9/10/5 10/9/5 11/11/6 12/12/6
f 12/12/6 11/11/6 14/13/7 13/14/7
f 13/14/7 14/13/7 15/15/8 16/16/8
f 16/16/8 15/15/8 17/17/9 18/18/9
f 18/18/9 17/17/9 20/19/10 19/20/10
f 19/20/10 20/19/10 22/21/11 21/22/11
f 21/22/11 22/21/11 24/23/12 23/24/12
f 23/24/12 24/23/12 2/25/1 1/26/1
f 11/27/13 10/28/14 27/29/15 28/30/13
f 22/31/16 20/32/17 32/33/17 33/34/16
f 10/28/14 8/35/18 62/36/19 27/29/15
f 20/32/17 17/37/20 31/38/20 32/33/17
f 6/39/21 59/40/22 60/41/23
f 17/37/20 15/42/24 30/43/24 31/38/20
f 6/39/21 4/44/25 26/45/26 59/40/22
f 15/42/24 14/46/27 29/47/27 30/43/24
f 2/48/28 24/49/29 34/50/29 25/51/28
f 4/44/25 2/48/28 25/51/28 26/45/26
f 14/46/27 11/27/13 28/30/13 29/47/27
f 24/49/29 22/31/16 33/34/16 34/50/29
f 35/52/30 53/53/31 41/54/32 55/55/33
f 28/56/34 27/57/35 44/58/36 49/59/37
f 32/60/38 31/61/39 52/62/39 54/63/38
f 39/64/40 58/65/41 45/66/42 36/67/43
f 59/68/44 26/69/45 37/70/46 40/71/47
f 58/65/41 43/72/48 46/73/49 45/66/42
f 29/74/50 28/56/34 49/59/37 43/75/51
f 47/76/52 35/52/30 55/55/33 57/77/53
f 33/78/54 32/60/38 54/63/38 56/79/54
f 51/80/55 39/64/40 36/67/43 38/81/56
f 62/82/57 59/68/44 40/71/47 42/83/58
f 53/53/31 49/84/59 48/85/60 41/54/32
f 30/86/61 29/74/50 43/75/51 50/87/61
f 57/88/62 55/89/63 36/90/63 45/91/62
f 34/92/64 33/78/54 56/79/54 58/93/65
f 43/72/48 51/80/55 38/81/56 46/73/49
f 27/57/35 62/82/57 42/83/58 44/58/36
f 49/84/59 47/76/52 57/77/53 48/85/60
f 48/94/66 57/88/62 45/91/62 46/95/66
f 31/61/39 30/86/61 50/87/61 52/62/39
f 43/96/51 49/97/37 53/98/67 51/99/67
f 25/100/68 34/92/64 58/93/65 47/101/69
f 26/69/45 25/100/68 47/101/69 37/70/46
f 54/102/70 52/103/70 43/72/70 58/65/70
f 54/102/70 58/65/70 56/104/70
f 47/105/69 58/106/65 39/107/71 35/108/71
f 40/109/70 47/76/70 49/84/70 42/110/70
f 51/99/67 53/98/67 35/108/71 39/107/71
f 43/72/70 52/103/70 50/111/70
f 47/76/70 40/109/70 37/112/70
f 44/113/70 42/110/70 49/84/70
f 41/114/72 48/94/66 46/95/66 38/115/72
f 61/116/70 60/117/70 59/68/44 62/82/57
f 62/36/19 8/35/18 61/118/73
f 8/119/74 6/120/74 60/121/74 61/122/74
v -0.440494 6.826787 -5.777232
v -0.155176 6.737736 -5.590041
v -0.440494 -0.668774 -5.868825
v -0.440494 6.322111 -5.868825
v -0.155176 -0.668774 -5.661531
v -0.155176 6.322111 -5.661531
v -0.264159 -0.668774 -5.326120
v -0.264159 6.322111 -5.326120
v -0.616829 -0.668774 -5.326121
v -0.616829 6.322111 -5.326121
v -0.725811 -0.668774 -5.661531
v -0.725811 6.322111 -5.661531
v -0.264159 6.593648 -5.287155
v -0.616829 6.593648 -5.287157
v -0.725811 6.737736 -5.590041
v -0.440494 7.303320 -5.402030
v -0.725812 7.128229 -5.291063
v -0.616829 6.844924 -5.111512
v -0.264159 6.844924 -5.111511
v -0.155176 7.128229 -5.291063
v -0.440495 7.559801 -4.837783
v -0.725812 7.352556 -4.833264
v -0.616830 7.017226 -4.825951
v -0.264159 7.017225 -4.825950
v -0.155177 7.352556 -4.833264
v -0.440494 7.652131 -4.837783
v -0.815440 7.379785 -4.833264
v -0.672223 6.939116 -4.825951
v -0.208766 6.939114 -4.825950
v -0.065549 7.379785 -4.833264
v -0.440496 7.668003 -4.234064
v -0.815442 7.395596 -4.232763
v -0.672225 6.954831 -4.230659
v -0.208768 6.954830 -4.230658
v -0.065550 7.395596 -4.232763
vt 0.487501 0.743608
vt 0.477342 0.743815
vt 0.475701 0.726967
vt 0.487346 0.727138
vt 0.513143 0.755101
vt 0.500464 0.754438
vt 0.500217 0.743620
vt 0.514262 0.745159
vt 0.488928 0.756604
vt 0.478101 0.758054
vt 0.457879 0.985315
vt 0.455833 0.755941
vt 0.467288 0.757541
vt 0.469451 0.985212
vt 0.501610 0.730016
vt 0.481120 0.985102
vt 0.516718 0.733849
vt 0.471649 0.702991
vt 0.487958 0.704412
vt 0.505693 0.712185
vt 0.522041 0.721205
vt 0.471084 0.700273
vt 0.488593 0.700803
vt 0.525763 0.719707
vt 0.507775 0.708044
vt 0.518218 0.679292
vt 0.540653 0.690880
vt 0.490826 0.672651
vt 0.465626 0.674646
vt 0.457603 0.710607
vt 0.455213 0.707674
vt 0.442294 0.683336
vt 0.465135 0.730127
vt 0.467592 0.745001
vt 0.493066 0.984972
vt 0.443322 0.724389
vt 0.421158 0.699949
vt 0.448605 0.724202
vt 0.456250 0.746341
vt 0.454004 0.735592
vt 0.504753 0.984828
vt 0.516116 0.984688
vn 0.9224 0.1577 -0.3524
vn -0.0000 0.4086 -0.9127
vn -0.0000 0.7870 -0.6170
vn 0.9235 0.2980 -0.2416
vn -0.5994 -0.0595 0.7982
vn 0.5994 -0.0595 0.7982
vn 0.6320 -0.2877 0.7196
vn -0.6320 -0.2876 0.7196
vn 0.9411 0.0333 -0.3366
vn -0.0000 0.0849 -0.9964
vn -0.5878 0.0000 0.8090
vn -0.9411 0.0333 -0.3366
vn -0.9511 0.0000 -0.3090
vn 0.6244 -0.5732 0.5307
vn -0.0000 0.0000 -1.0000
vn -0.6244 -0.5732 0.5307
vn -0.0000 0.9049 -0.4257
vn 0.8853 0.4241 -0.1908
vn 0.6567 -0.6518 0.3794
vn -0.6567 -0.6518 0.3794
vn 0.0015 -0.0117 -0.9999
vn -0.0000 -0.0066 -1.0000
vn 0.0013 -0.0119 -0.9999
vn -0.5860 -0.8100 0.0214
vn 0.5860 -0.8100 0.0214
vn 0.5916 -0.8060 0.0213
vn -0.5916 -0.8060 0.0213
vn 0.9521 0.3056 -0.0080
vn 0.9486 0.3162 -0.0083
vn 0.0000 0.9997 -0.0263
vn 0.0030 -0.0085 -1.0000
vn -0.0030 -0.0085 -1.0000
vn -0.0029 -0.0084 -1.0000
vn 0.0029 -0.0084 -1.0000
vn -0.0015 -0.0117 -0.9999
vn -0.0013 -0.0119 -0.9999
vn -0.9521 0.3056 -0.0080
vn -0.9486 0.3162 -0.0083
vn -0.9235 0.2980 -0.2416
vn -0.8853 0.4240 -0.1908
vn -0.9224 0.1577 -0.3524
vn 0.9511 0.0000 -0.3090
vn 0.5878 0.0000 0.8090
usemtl WaterTank
s 1
f 64/123/75 63/124/76 78/125/77 82/126/78
f 72/127/79 70/128/80 75/129/81 76/130/82
f 68/131/83 66/132/84 63/124/76 64/123/75
f 70/128/80 68/131/83 64/123/75 75/129/81
f 71/133/85 72/134/79 74/135/86 73/136/87
f 75/129/81 64/123/75 82/126/78 81/137/88
f 73/136/87 74/135/86 66/132/84 65/138/89
f 76/130/82 75/129/81 81/137/88 80/139/90
f 82/126/78 78/125/77 83/140/91 87/141/92
f 80/139/90 81/137/88 86/142/93 85/143/94
f 81/137/88 82/126/78 87/141/92 86/142/93
f 87/141/95 83/140/96 88/144/96 92/145/97
f 90/146/98 91/147/99 96/148/100 95/149/101
f 91/147/99 92/145/102 97/150/103 96/148/100
f 92/145/102 88/144/104 93/151/104 97/150/103
f 85/143/105 86/142/106 91/147/107 90/146/108
f 86/142/106 87/141/95 92/145/97 91/147/107
f 83/140/96 84/152/109 89/153/110 88/144/96
f 88/144/104 89/153/111 94/154/112 93/151/104
f 78/125/77 79/155/113 84/152/114 83/140/91
f 66/132/84 74/135/86 77/156/115 63/124/76
f 63/124/76 77/156/115 79/155/113 78/125/77
f 65/138/89 66/132/84 68/131/83 67/157/116
f 89/153/111 90/158/98 95/159/101 94/154/112
f 84/152/109 85/160/105 90/158/108 89/153/110
f 74/135/86 72/134/79 76/161/82 77/156/115
f 77/156/115 76/161/82 80/162/90 79/155/113
f 79/155/113 80/162/90 85/160/94 84/152/114
f 69/163/117 70/128/80 72/127/79 71/164/85
f 67/157/116 68/131/83 70/128/80 69/163/117
v 0.506733 6.826787 -5.777232
v 0.792051 6.737736 -5.590041
v 0.506733 -0.668774 -5.868825
v 0.506733 6.322111 -5.868825
v 0.792051 -0.668774 -5.661531
v 0.792051 6.322111 -5.661531
v 0.683069 -0.668774 -5.326120
v 0.683069 6.322111 -5.326120
v 0.330398 -0.668774 -5.326121
v 0.330398 6.322111 -5.326121
v 0.221416 -0.668774 -5.661531
v 0.221416 6.322111 -5.661531
v 0.683069 6.593648 -5.287155
v 0.330398 6.593648 -5.287157
v 0.221416 6.737736 -5.590041
v 0.506733 7.303320 -5.402030
v 0.221416 7.128229 -5.291063
v 0.330398 6.844924 -5.111512
v 0.683069 6.844924 -5.111511
v 0.792051 7.128229 -5.291063
v 0.506733 7.559801 -4.837783
v 0.221415 7.352556 -4.833264
v 0.330398 7.017226 -4.825951
v 0.683068 7.017225 -4.825950
v 0.792051 7.352556 -4.833264
v 0.506733 7.652131 -4.837783
v 0.131788 7.379785 -4.833264
v 0.275005 6.939116 -4.825951
v 0.738461 6.939114 -4.825950
v 0.881679 7.379785 -4.833264
v 0.506731 7.668003 -4.234064
v 0.131786 7.395596 -4.232763
v 0.275003 6.954831 -4.230659
v 0.738459 6.954830 -4.230658
v 0.881677 7.395596 -4.232763
vt 0.487501 0.743608
vt 0.477342 0.743815
vt 0.475701 0.726967
vt 0.487346 0.727138
vt 0.513143 0.755101
vt 0.500464 0.754438
vt 0.500217 0.743620
vt 0.514262 0.745159
vt 0.488928 0.756604
vt 0.478101 0.758054
vt 0.457879 0.985315
vt 0.455833 0.755941
vt 0.467288 0.757541
vt 0.469451 0.985212
vt 0.501610 0.730016
vt 0.481120 0.985102
vt 0.516718 0.733849
vt 0.471649 0.702991
vt 0.487958 0.704412
vt 0.505693 0.712185
vt 0.522041 0.721205
vt 0.471084 0.700273
vt 0.488593 0.700803
vt 0.525763 0.719707
vt 0.507775 0.708044
vt 0.518218 0.679292
vt 0.540653 0.690880
vt 0.490826 0.672651
vt 0.465626 0.674646
vt 0.457603 0.710607
vt 0.455213 0.707674
vt 0.442294 0.683336
vt 0.465135 0.730127
vt 0.467592 0.745001
vt 0.493066 0.984972
vt 0.443322 0.724389
vt 0.421158 0.699949
vt 0.448605 0.724202
vt 0.456250 0.746341
vt 0.454004 0.735592
vt 0.504753 0.984828
vt 0.516116 0.984688
vn 0.9224 0.1577 -0.3524
vn -0.0000 0.4086 -0.9127
vn -0.0000 0.7870 -0.6170
vn 0.9235 0.2980 -0.2416
vn -0.5994 -0.0595 0.7982
vn 0.5994 -0.0595 0.7982
vn 0.6320 -0.2877 0.7196
vn -0.6320 -0.2876 0.7196
vn 0.9411 0.0333 -0.3366
vn -0.0000 0.0849 -0.9964
vn -0.5878 0.0000 0.8090
vn -0.9411 0.0333 -0.3366
vn -0.9511 0.0000 -0.3090
vn 0.6244 -0.5732 0.5307
vn -0.0000 0.0000 -1.0000
vn -0.6244 -0.5732 0.5307
vn -0.0000 0.9049 -0.4257
vn 0.8853 0.4241 -0.1908
vn 0.6567 -0.6518 0.3794
vn -0.6567 -0.6518 0.3794
vn 0.0015 -0.0117 -0.9999
vn -0.0000 -0.0066 -1.0000
vn 0.0013 -0.0119 -0.9999
vn -0.5860 -0.8100 0.0214
vn 0.5860 -0.8100 0.0214
vn 0.5916 -0.8060 0.0213
vn -0.5916 -0.8060 0.0213
vn 0.9521 0.3056 -0.0080
vn 0.9486 0.3162 -0.0083
vn 0.0000 0.9997 -0.0263
vn 0.0030 -0.0085 -1.0000
vn -0.0030 -0.0085 -1.0000
vn -0.0029 -0.0084 -1.0000
vn 0.0029 -0.0084 -1.0000
vn -0.0015 -0.0117 -0.9999
vn -0.0013 -0.0119 -0.9999
vn -0.9521 0.3056 -0.0080
vn -0.9486 0.3162 -0.0083
vn -0.9235 0.2980 -0.2416
vn -0.8853 0.4240 -0.1908
vn -0.9224 0.1577 -0.3524
vn 0.9511 0.0000 -0.3090
vn 0.5878 0.0000 0.8090
usemtl WaterTank
s 1
f 99/165/118 98/166/119 113/167/120 117/168/121
f 107/169/122 105/170/123 110/171/124 111/172/125
f 103/173/126 101/174/127 98/166/119 99/165/118
f 105/170/123 103/173/126 99/165/118 110/171/124
f 106/175/128 107/176/122 109/177/129 108/178/130
f 110/171/124 99/165/118 117/168/121 116/179/131
f 108/178/130 109/177/129 101/174/127 100/180/132
f 111/172/125 110/171/124 116/179/131 115/181/133
f 117/168/121 113/167/120 118/182/134 122/183/135
f 115/181/133 116/179/131 121/184/136 120/185/137
f 116/179/131 117/168/121 122/183/135 121/184/136
f 122/183/138 118/182/139 123/186/139 127/187/140
f 125/188/141 126/189/142 131/190/143 130/191/144
f 126/189/142 127/187/145 132/192/146 131/190/143
f 127/187/145 123/186/147 128/193/147 132/192/146
f 120/185/148 121/184/149 126/189/150 125/188/151
f 121/184/149 122/183/138 127/187/140 126/189/150
f 118/182/139 119/194/152 124/195/153 123/186/139
f 123/186/147 124/195/154 129/196/155 128/193/147
f 113/167/120 114/197/156 119/194/157 118/182/134
f 101/174/127 109/177/129 112/198/158 98/166/119
f 98/166/119 112/198/158 114/197/156 113/167/120
f 100/180/132 101/174/127 103/173/126 102/199/159
f 124/195/154 125/200/141 130/201/144 129/196/155
f 119/194/152 120/202/148 125/200/151 124/195/153
f 109/177/129 107/176/122 111/203/125 112/198/158
f 112/198/158 111/203/125 115/204/133 114/197/156
f 114/197/156 115/204/133 120/202/137 119/194/157
f 104/205/160 105/170/123 107/169/122 106/206/128
f 102/199/159 103/173/126 105/170/123 104/205/160
